ISO-10303-21;
HEADER;
/* Generated by software containing ST-Developer
 * from STEP Tools, Inc. (www.steptools.com) 
 */
/* OPTION: using custom renumber hook */

FILE_DESCRIPTION(
/* description */ ('STEP AP242 Edition 2',
'CAx-IF Rec.Pracs.---Representation and Presentation of Product Manufa
cturing Information (PMI)---4.0---2014-10-13',
'CAx-IF Rec.Pracs.---3D Tessellated Geometry---0.4---2014-09-14','2;1',
'CAx-IF Rec.Pracs.---User Defined Attributes---1.5---2016-08-15'),
/* implementation_level */ '2;1');

FILE_NAME(
/* name */ 'GDEY027T91 v4',
/* time_stamp */ '2026-10-04T14:07:44Z',
/* author */ (''),
/* organization */ (''),
/* preprocessor_version */ 'ST-DEVELOPER v20',
/* originating_system */ 'ONSHAPE BY PTC INC, 1.221',
/* authorisation */ '  ');

FILE_SCHEMA (('AP242_MANAGED_MODEL_BASED_3D_ENGINEERING_MIM_LF { 1 0 10303 442 3 1 4 }'));
ENDSEC;

DATA;
#10=B_SPLINE_CURVE_WITH_KNOTS('',3,(#1510,#1511,#1512,#1513),
 .UNSPECIFIED.,.F.,.F.,(4,4),(90.,114.90915273695),.UNSPECIFIED.);
#11=B_SPLINE_CURVE_WITH_KNOTS('',3,(#1517,#1518,#1519,#1520),
 .UNSPECIFIED.,.F.,.F.,(4,4),(90.,114.90915273695),.UNSPECIFIED.);
#12=B_SPLINE_CURVE_WITH_KNOTS('',3,(#1527,#1528,#1529,#1530),
 .UNSPECIFIED.,.F.,.F.,(4,4),(90.,114.90915273695),.UNSPECIFIED.);
#13=B_SPLINE_CURVE_WITH_KNOTS('',3,(#1541,#1542,#1543,#1544),
 .UNSPECIFIED.,.F.,.F.,(4,4),(90.,114.90915273695),.UNSPECIFIED.);
#14=SHAPE_REPRESENTATION_RELATIONSHIP('','',#1030,#21);
#15=SHAPE_REPRESENTATION_RELATIONSHIP('','',#1031,#22);
#16=SHAPE_REPRESENTATION_RELATIONSHIP('','',#1032,#23);
#17=SHAPE_REPRESENTATION_RELATIONSHIP('','',#1033,#24);
#18=SHAPE_REPRESENTATION_RELATIONSHIP('','',#1034,#25);
#19=SHAPE_REPRESENTATION_RELATIONSHIP('','',#1035,#26);
#20=SHAPE_REPRESENTATION_RELATIONSHIP('','',#1036,#27);
#21=ADVANCED_BREP_SHAPE_REPRESENTATION('',(#1016),#1652);
#22=ADVANCED_BREP_SHAPE_REPRESENTATION('',(#1017),#1653);
#23=ADVANCED_BREP_SHAPE_REPRESENTATION('',(#1018),#1654);
#24=ADVANCED_BREP_SHAPE_REPRESENTATION('',(#1019),#1655);
#25=ADVANCED_BREP_SHAPE_REPRESENTATION('',(#1020),#1656);
#26=ADVANCED_BREP_SHAPE_REPRESENTATION('',(#1021),#1657);
#27=ADVANCED_BREP_SHAPE_REPRESENTATION('',(#1022),#1658);
#28=PLANE('',#1041);
#29=PLANE('',#1042);
#30=PLANE('',#1047);
#31=PLANE('',#1048);
#32=PLANE('',#1049);
#33=PLANE('',#1050);
#34=PLANE('',#1051);
#35=PLANE('',#1052);
#36=PLANE('',#1054);
#37=PLANE('',#1055);
#38=PLANE('',#1056);
#39=PLANE('',#1057);
#40=PLANE('',#1058);
#41=PLANE('',#1059);
#42=PLANE('',#1061);
#43=PLANE('',#1062);
#44=PLANE('',#1063);
#45=PLANE('',#1064);
#46=PLANE('',#1065);
#47=PLANE('',#1066);
#48=PLANE('',#1067);
#49=PLANE('',#1068);
#50=PLANE('',#1069);
#51=PLANE('',#1070);
#52=PLANE('',#1071);
#53=PLANE('',#1072);
#54=PLANE('',#1073);
#55=PLANE('',#1074);
#56=PLANE('',#1084);
#57=PLANE('',#1085);
#58=PLANE('',#1086);
#59=PLANE('',#1087);
#60=PLANE('',#1088);
#61=PLANE('',#1089);
#62=PLANE('',#1090);
#63=PLANE('',#1091);
#64=PLANE('',#1092);
#65=PLANE('',#1094);
#66=PLANE('',#1095);
#67=PLANE('',#1096);
#68=PLANE('',#1097);
#69=PLANE('',#1098);
#70=PLANE('',#1099);
#71=PLANE('',#1101);
#72=PLANE('',#1102);
#73=PLANE('',#1103);
#74=PLANE('',#1104);
#75=PLANE('',#1105);
#76=PLANE('',#1106);
#77=LINE('',#1365,#191);
#78=LINE('',#1374,#192);
#79=LINE('',#1378,#193);
#80=LINE('',#1381,#194);
#81=LINE('',#1383,#195);
#82=LINE('',#1385,#196);
#83=LINE('',#1387,#197);
#84=LINE('',#1389,#198);
#85=LINE('',#1391,#199);
#86=LINE('',#1393,#200);
#87=LINE('',#1395,#201);
#88=LINE('',#1397,#202);
#89=LINE('',#1399,#203);
#90=LINE('',#1400,#204);
#91=LINE('',#1405,#205);
#92=LINE('',#1408,#206);
#93=LINE('',#1410,#207);
#94=LINE('',#1412,#208);
#95=LINE('',#1414,#209);
#96=LINE('',#1416,#210);
#97=LINE('',#1418,#211);
#98=LINE('',#1420,#212);
#99=LINE('',#1422,#213);
#100=LINE('',#1424,#214);
#101=LINE('',#1426,#215);
#102=LINE('',#1427,#216);
#103=LINE('',#1432,#217);
#104=LINE('',#1435,#218);
#105=LINE('',#1437,#219);
#106=LINE('',#1439,#220);
#107=LINE('',#1441,#221);
#108=LINE('',#1443,#222);
#109=LINE('',#1445,#223);
#110=LINE('',#1447,#224);
#111=LINE('',#1449,#225);
#112=LINE('',#1451,#226);
#113=LINE('',#1453,#227);
#114=LINE('',#1455,#228);
#115=LINE('',#1457,#229);
#116=LINE('',#1459,#230);
#117=LINE('',#1461,#231);
#118=LINE('',#1463,#232);
#119=LINE('',#1465,#233);
#120=LINE('',#1466,#234);
#121=LINE('',#1468,#235);
#122=LINE('',#1471,#236);
#123=LINE('',#1473,#237);
#124=LINE('',#1475,#238);
#125=LINE('',#1477,#239);
#126=LINE('',#1479,#240);
#127=LINE('',#1481,#241);
#128=LINE('',#1483,#242);
#129=LINE('',#1485,#243);
#130=LINE('',#1487,#244);
#131=LINE('',#1489,#245);
#132=LINE('',#1491,#246);
#133=LINE('',#1493,#247);
#134=LINE('',#1495,#248);
#135=LINE('',#1497,#249);
#136=LINE('',#1499,#250);
#137=LINE('',#1501,#251);
#138=LINE('',#1502,#252);
#139=LINE('',#1507,#253);
#140=LINE('',#1515,#254);
#141=LINE('',#1525,#255);
#142=LINE('',#1532,#256);
#143=LINE('',#1533,#257);
#144=LINE('',#1537,#258);
#145=LINE('',#1539,#259);
#146=LINE('',#1546,#260);
#147=LINE('',#1551,#261);
#148=LINE('',#1552,#262);
#149=LINE('',#1553,#263);
#150=LINE('',#1557,#264);
#151=LINE('',#1559,#265);
#152=LINE('',#1561,#266);
#153=LINE('',#1563,#267);
#154=LINE('',#1565,#268);
#155=LINE('',#1567,#269);
#156=LINE('',#1569,#270);
#157=LINE('',#1571,#271);
#158=LINE('',#1573,#272);
#159=LINE('',#1575,#273);
#160=LINE('',#1577,#274);
#161=LINE('',#1579,#275);
#162=LINE('',#1581,#276);
#163=LINE('',#1583,#277);
#164=LINE('',#1585,#278);
#165=LINE('',#1587,#279);
#166=LINE('',#1588,#280);
#167=LINE('',#1593,#281);
#168=LINE('',#1596,#282);
#169=LINE('',#1598,#283);
#170=LINE('',#1600,#284);
#171=LINE('',#1602,#285);
#172=LINE('',#1604,#286);
#173=LINE('',#1606,#287);
#174=LINE('',#1608,#288);
#175=LINE('',#1610,#289);
#176=LINE('',#1612,#290);
#177=LINE('',#1614,#291);
#178=LINE('',#1615,#292);
#179=LINE('',#1620,#293);
#180=LINE('',#1623,#294);
#181=LINE('',#1625,#295);
#182=LINE('',#1627,#296);
#183=LINE('',#1629,#297);
#184=LINE('',#1631,#298);
#185=LINE('',#1633,#299);
#186=LINE('',#1635,#300);
#187=LINE('',#1637,#301);
#188=LINE('',#1639,#302);
#189=LINE('',#1641,#303);
#190=LINE('',#1642,#304);
#191=VECTOR('',#1113,1000.);
#192=VECTOR('',#1126,1000.);
#193=VECTOR('',#1131,1000.);
#194=VECTOR('',#1132,1000.);
#195=VECTOR('',#1133,1000.);
#196=VECTOR('',#1134,1000.);
#197=VECTOR('',#1137,1000.);
#198=VECTOR('',#1138,1000.);
#199=VECTOR('',#1139,1000.);
#200=VECTOR('',#1142,1000.);
#201=VECTOR('',#1143,1000.);
#202=VECTOR('',#1144,1000.);
#203=VECTOR('',#1147,1000.);
#204=VECTOR('',#1148,1000.);
#205=VECTOR('',#1157,1000.);
#206=VECTOR('',#1158,1000.);
#207=VECTOR('',#1159,1000.);
#208=VECTOR('',#1160,1000.);
#209=VECTOR('',#1163,1000.);
#210=VECTOR('',#1164,1000.);
#211=VECTOR('',#1165,1000.);
#212=VECTOR('',#1168,1000.);
#213=VECTOR('',#1169,1000.);
#214=VECTOR('',#1170,1000.);
#215=VECTOR('',#1173,1000.);
#216=VECTOR('',#1174,1000.);
#217=VECTOR('',#1183,1000.);
#218=VECTOR('',#1184,1000.);
#219=VECTOR('',#1185,1000.);
#220=VECTOR('',#1186,1000.);
#221=VECTOR('',#1189,1000.);
#222=VECTOR('',#1190,1000.);
#223=VECTOR('',#1191,1000.);
#224=VECTOR('',#1194,1000.);
#225=VECTOR('',#1195,1000.);
#226=VECTOR('',#1196,1000.);
#227=VECTOR('',#1199,1000.);
#228=VECTOR('',#1200,1000.);
#229=VECTOR('',#1201,1000.);
#230=VECTOR('',#1204,1000.);
#231=VECTOR('',#1205,1000.);
#232=VECTOR('',#1206,1000.);
#233=VECTOR('',#1209,1000.);
#234=VECTOR('',#1210,1000.);
#235=VECTOR('',#1213,1000.);
#236=VECTOR('',#1214,1000.);
#237=VECTOR('',#1215,1000.);
#238=VECTOR('',#1216,1000.);
#239=VECTOR('',#1219,1000.);
#240=VECTOR('',#1220,1000.);
#241=VECTOR('',#1221,1000.);
#242=VECTOR('',#1224,1000.);
#243=VECTOR('',#1225,1000.);
#244=VECTOR('',#1226,1000.);
#245=VECTOR('',#1229,1000.);
#246=VECTOR('',#1230,1000.);
#247=VECTOR('',#1231,1000.);
#248=VECTOR('',#1234,1000.);
#249=VECTOR('',#1235,1000.);
#250=VECTOR('',#1236,1000.);
#251=VECTOR('',#1239,1000.);
#252=VECTOR('',#1240,1000.);
#253=VECTOR('',#1249,1000.);
#254=VECTOR('',#1250,1000.);
#255=VECTOR('',#1255,1000.);
#256=VECTOR('',#1256,1000.);
#257=VECTOR('',#1257,1000.);
#258=VECTOR('',#1260,1000.);
#259=VECTOR('',#1263,1000.);
#260=VECTOR('',#1264,1000.);
#261=VECTOR('',#1269,1000.);
#262=VECTOR('',#1270,1000.);
#263=VECTOR('',#1271,1000.);
#264=VECTOR('',#1274,1000.);
#265=VECTOR('',#1277,1000.);
#266=VECTOR('',#1280,1000.);
#267=VECTOR('',#1281,1000.);
#268=VECTOR('',#1282,1000.);
#269=VECTOR('',#1285,1000.);
#270=VECTOR('',#1286,1000.);
#271=VECTOR('',#1289,1000.);
#272=VECTOR('',#1290,1000.);
#273=VECTOR('',#1293,1000.);
#274=VECTOR('',#1294,1000.);
#275=VECTOR('',#1295,1000.);
#276=VECTOR('',#1298,1000.);
#277=VECTOR('',#1299,1000.);
#278=VECTOR('',#1300,1000.);
#279=VECTOR('',#1303,1000.);
#280=VECTOR('',#1304,1000.);
#281=VECTOR('',#1313,1000.);
#282=VECTOR('',#1314,1000.);
#283=VECTOR('',#1315,1000.);
#284=VECTOR('',#1316,1000.);
#285=VECTOR('',#1319,1000.);
#286=VECTOR('',#1320,1000.);
#287=VECTOR('',#1321,1000.);
#288=VECTOR('',#1324,1000.);
#289=VECTOR('',#1325,1000.);
#290=VECTOR('',#1326,1000.);
#291=VECTOR('',#1329,1000.);
#292=VECTOR('',#1330,1000.);
#293=VECTOR('',#1339,1000.);
#294=VECTOR('',#1340,1000.);
#295=VECTOR('',#1341,1000.);
#296=VECTOR('',#1342,1000.);
#297=VECTOR('',#1345,1000.);
#298=VECTOR('',#1346,1000.);
#299=VECTOR('',#1347,1000.);
#300=VECTOR('',#1350,1000.);
#301=VECTOR('',#1351,1000.);
#302=VECTOR('',#1352,1000.);
#303=VECTOR('',#1355,1000.);
#304=VECTOR('',#1356,1000.);
#305=ORIENTED_EDGE('',*,*,#557,.F.);
#306=ORIENTED_EDGE('',*,*,#558,.T.);
#307=ORIENTED_EDGE('',*,*,#559,.T.);
#308=ORIENTED_EDGE('',*,*,#558,.F.);
#309=ORIENTED_EDGE('',*,*,#557,.T.);
#310=ORIENTED_EDGE('',*,*,#559,.F.);
#311=ORIENTED_EDGE('',*,*,#560,.F.);
#312=ORIENTED_EDGE('',*,*,#561,.T.);
#313=ORIENTED_EDGE('',*,*,#562,.T.);
#314=ORIENTED_EDGE('',*,*,#561,.F.);
#315=ORIENTED_EDGE('',*,*,#563,.T.);
#316=ORIENTED_EDGE('',*,*,#564,.T.);
#317=ORIENTED_EDGE('',*,*,#565,.F.);
#318=ORIENTED_EDGE('',*,*,#566,.F.);
#319=ORIENTED_EDGE('',*,*,#567,.T.);
#320=ORIENTED_EDGE('',*,*,#566,.T.);
#321=ORIENTED_EDGE('',*,*,#568,.F.);
#322=ORIENTED_EDGE('',*,*,#569,.F.);
#323=ORIENTED_EDGE('',*,*,#570,.T.);
#324=ORIENTED_EDGE('',*,*,#569,.T.);
#325=ORIENTED_EDGE('',*,*,#571,.F.);
#326=ORIENTED_EDGE('',*,*,#572,.F.);
#327=ORIENTED_EDGE('',*,*,#573,.T.);
#328=ORIENTED_EDGE('',*,*,#572,.T.);
#329=ORIENTED_EDGE('',*,*,#574,.F.);
#330=ORIENTED_EDGE('',*,*,#564,.F.);
#331=ORIENTED_EDGE('',*,*,#574,.T.);
#332=ORIENTED_EDGE('',*,*,#571,.T.);
#333=ORIENTED_EDGE('',*,*,#568,.T.);
#334=ORIENTED_EDGE('',*,*,#565,.T.);
#335=ORIENTED_EDGE('',*,*,#560,.T.);
#336=ORIENTED_EDGE('',*,*,#573,.F.);
#337=ORIENTED_EDGE('',*,*,#563,.F.);
#338=ORIENTED_EDGE('',*,*,#567,.F.);
#339=ORIENTED_EDGE('',*,*,#570,.F.);
#340=ORIENTED_EDGE('',*,*,#562,.F.);
#341=ORIENTED_EDGE('',*,*,#575,.T.);
#342=ORIENTED_EDGE('',*,*,#576,.T.);
#343=ORIENTED_EDGE('',*,*,#577,.F.);
#344=ORIENTED_EDGE('',*,*,#578,.F.);
#345=ORIENTED_EDGE('',*,*,#579,.T.);
#346=ORIENTED_EDGE('',*,*,#578,.T.);
#347=ORIENTED_EDGE('',*,*,#580,.F.);
#348=ORIENTED_EDGE('',*,*,#581,.F.);
#349=ORIENTED_EDGE('',*,*,#582,.T.);
#350=ORIENTED_EDGE('',*,*,#581,.T.);
#351=ORIENTED_EDGE('',*,*,#583,.F.);
#352=ORIENTED_EDGE('',*,*,#584,.F.);
#353=ORIENTED_EDGE('',*,*,#585,.T.);
#354=ORIENTED_EDGE('',*,*,#584,.T.);
#355=ORIENTED_EDGE('',*,*,#586,.F.);
#356=ORIENTED_EDGE('',*,*,#576,.F.);
#357=ORIENTED_EDGE('',*,*,#585,.F.);
#358=ORIENTED_EDGE('',*,*,#575,.F.);
#359=ORIENTED_EDGE('',*,*,#579,.F.);
#360=ORIENTED_EDGE('',*,*,#582,.F.);
#361=ORIENTED_EDGE('',*,*,#586,.T.);
#362=ORIENTED_EDGE('',*,*,#583,.T.);
#363=ORIENTED_EDGE('',*,*,#580,.T.);
#364=ORIENTED_EDGE('',*,*,#577,.T.);
#365=ORIENTED_EDGE('',*,*,#587,.T.);
#366=ORIENTED_EDGE('',*,*,#588,.T.);
#367=ORIENTED_EDGE('',*,*,#589,.F.);
#368=ORIENTED_EDGE('',*,*,#590,.F.);
#369=ORIENTED_EDGE('',*,*,#591,.T.);
#370=ORIENTED_EDGE('',*,*,#590,.T.);
#371=ORIENTED_EDGE('',*,*,#592,.F.);
#372=ORIENTED_EDGE('',*,*,#593,.F.);
#373=ORIENTED_EDGE('',*,*,#594,.T.);
#374=ORIENTED_EDGE('',*,*,#593,.T.);
#375=ORIENTED_EDGE('',*,*,#595,.F.);
#376=ORIENTED_EDGE('',*,*,#596,.F.);
#377=ORIENTED_EDGE('',*,*,#597,.T.);
#378=ORIENTED_EDGE('',*,*,#596,.T.);
#379=ORIENTED_EDGE('',*,*,#598,.F.);
#380=ORIENTED_EDGE('',*,*,#599,.F.);
#381=ORIENTED_EDGE('',*,*,#600,.T.);
#382=ORIENTED_EDGE('',*,*,#599,.T.);
#383=ORIENTED_EDGE('',*,*,#601,.F.);
#384=ORIENTED_EDGE('',*,*,#602,.F.);
#385=ORIENTED_EDGE('',*,*,#603,.T.);
#386=ORIENTED_EDGE('',*,*,#602,.T.);
#387=ORIENTED_EDGE('',*,*,#604,.F.);
#388=ORIENTED_EDGE('',*,*,#588,.F.);
#389=ORIENTED_EDGE('',*,*,#605,.T.);
#390=ORIENTED_EDGE('',*,*,#606,.T.);
#391=ORIENTED_EDGE('',*,*,#607,.F.);
#392=ORIENTED_EDGE('',*,*,#608,.F.);
#393=ORIENTED_EDGE('',*,*,#609,.T.);
#394=ORIENTED_EDGE('',*,*,#608,.T.);
#395=ORIENTED_EDGE('',*,*,#610,.F.);
#396=ORIENTED_EDGE('',*,*,#611,.F.);
#397=ORIENTED_EDGE('',*,*,#612,.T.);
#398=ORIENTED_EDGE('',*,*,#611,.T.);
#399=ORIENTED_EDGE('',*,*,#613,.F.);
#400=ORIENTED_EDGE('',*,*,#614,.F.);
#401=ORIENTED_EDGE('',*,*,#615,.T.);
#402=ORIENTED_EDGE('',*,*,#614,.T.);
#403=ORIENTED_EDGE('',*,*,#616,.F.);
#404=ORIENTED_EDGE('',*,*,#617,.F.);
#405=ORIENTED_EDGE('',*,*,#618,.T.);
#406=ORIENTED_EDGE('',*,*,#617,.T.);
#407=ORIENTED_EDGE('',*,*,#619,.F.);
#408=ORIENTED_EDGE('',*,*,#620,.F.);
#409=ORIENTED_EDGE('',*,*,#621,.T.);
#410=ORIENTED_EDGE('',*,*,#620,.T.);
#411=ORIENTED_EDGE('',*,*,#622,.F.);
#412=ORIENTED_EDGE('',*,*,#606,.F.);
#413=ORIENTED_EDGE('',*,*,#622,.T.);
#414=ORIENTED_EDGE('',*,*,#619,.T.);
#415=ORIENTED_EDGE('',*,*,#616,.T.);
#416=ORIENTED_EDGE('',*,*,#613,.T.);
#417=ORIENTED_EDGE('',*,*,#610,.T.);
#418=ORIENTED_EDGE('',*,*,#607,.T.);
#419=ORIENTED_EDGE('',*,*,#604,.T.);
#420=ORIENTED_EDGE('',*,*,#601,.T.);
#421=ORIENTED_EDGE('',*,*,#598,.T.);
#422=ORIENTED_EDGE('',*,*,#595,.T.);
#423=ORIENTED_EDGE('',*,*,#592,.T.);
#424=ORIENTED_EDGE('',*,*,#589,.T.);
#425=ORIENTED_EDGE('',*,*,#621,.F.);
#426=ORIENTED_EDGE('',*,*,#605,.F.);
#427=ORIENTED_EDGE('',*,*,#609,.F.);
#428=ORIENTED_EDGE('',*,*,#612,.F.);
#429=ORIENTED_EDGE('',*,*,#615,.F.);
#430=ORIENTED_EDGE('',*,*,#618,.F.);
#431=ORIENTED_EDGE('',*,*,#603,.F.);
#432=ORIENTED_EDGE('',*,*,#587,.F.);
#433=ORIENTED_EDGE('',*,*,#591,.F.);
#434=ORIENTED_EDGE('',*,*,#594,.F.);
#435=ORIENTED_EDGE('',*,*,#597,.F.);
#436=ORIENTED_EDGE('',*,*,#600,.F.);
#437=ORIENTED_EDGE('',*,*,#623,.T.);
#438=ORIENTED_EDGE('',*,*,#624,.T.);
#439=ORIENTED_EDGE('',*,*,#625,.F.);
#440=ORIENTED_EDGE('',*,*,#626,.F.);
#441=ORIENTED_EDGE('',*,*,#627,.T.);
#442=ORIENTED_EDGE('',*,*,#628,.T.);
#443=ORIENTED_EDGE('',*,*,#629,.T.);
#444=ORIENTED_EDGE('',*,*,#630,.F.);
#445=ORIENTED_EDGE('',*,*,#624,.F.);
#446=ORIENTED_EDGE('',*,*,#631,.T.);
#447=ORIENTED_EDGE('',*,*,#632,.T.);
#448=ORIENTED_EDGE('',*,*,#633,.T.);
#449=ORIENTED_EDGE('',*,*,#634,.T.);
#450=ORIENTED_EDGE('',*,*,#635,.T.);
#451=ORIENTED_EDGE('',*,*,#636,.F.);
#452=ORIENTED_EDGE('',*,*,#629,.F.);
#453=ORIENTED_EDGE('',*,*,#637,.T.);
#454=ORIENTED_EDGE('',*,*,#638,.T.);
#455=ORIENTED_EDGE('',*,*,#626,.T.);
#456=ORIENTED_EDGE('',*,*,#639,.F.);
#457=ORIENTED_EDGE('',*,*,#635,.F.);
#458=ORIENTED_EDGE('',*,*,#640,.T.);
#459=ORIENTED_EDGE('',*,*,#641,.T.);
#460=ORIENTED_EDGE('',*,*,#642,.T.);
#461=ORIENTED_EDGE('',*,*,#631,.F.);
#462=ORIENTED_EDGE('',*,*,#623,.F.);
#463=ORIENTED_EDGE('',*,*,#638,.F.);
#464=ORIENTED_EDGE('',*,*,#643,.T.);
#465=ORIENTED_EDGE('',*,*,#637,.F.);
#466=ORIENTED_EDGE('',*,*,#644,.F.);
#467=ORIENTED_EDGE('',*,*,#645,.T.);
#468=ORIENTED_EDGE('',*,*,#646,.T.);
#469=ORIENTED_EDGE('',*,*,#632,.F.);
#470=ORIENTED_EDGE('',*,*,#643,.F.);
#471=ORIENTED_EDGE('',*,*,#647,.T.);
#472=ORIENTED_EDGE('',*,*,#648,.T.);
#473=ORIENTED_EDGE('',*,*,#633,.F.);
#474=ORIENTED_EDGE('',*,*,#646,.F.);
#475=ORIENTED_EDGE('',*,*,#642,.F.);
#476=ORIENTED_EDGE('',*,*,#649,.F.);
#477=ORIENTED_EDGE('',*,*,#650,.T.);
#478=ORIENTED_EDGE('',*,*,#644,.T.);
#479=ORIENTED_EDGE('',*,*,#641,.F.);
#480=ORIENTED_EDGE('',*,*,#651,.F.);
#481=ORIENTED_EDGE('',*,*,#652,.F.);
#482=ORIENTED_EDGE('',*,*,#653,.T.);
#483=ORIENTED_EDGE('',*,*,#649,.T.);
#484=ORIENTED_EDGE('',*,*,#654,.T.);
#485=ORIENTED_EDGE('',*,*,#652,.T.);
#486=ORIENTED_EDGE('',*,*,#655,.F.);
#487=ORIENTED_EDGE('',*,*,#656,.F.);
#488=ORIENTED_EDGE('',*,*,#657,.T.);
#489=ORIENTED_EDGE('',*,*,#656,.T.);
#490=ORIENTED_EDGE('',*,*,#658,.F.);
#491=ORIENTED_EDGE('',*,*,#627,.F.);
#492=ORIENTED_EDGE('',*,*,#648,.F.);
#493=ORIENTED_EDGE('',*,*,#628,.F.);
#494=ORIENTED_EDGE('',*,*,#658,.T.);
#495=ORIENTED_EDGE('',*,*,#655,.T.);
#496=ORIENTED_EDGE('',*,*,#651,.T.);
#497=ORIENTED_EDGE('',*,*,#640,.F.);
#498=ORIENTED_EDGE('',*,*,#634,.F.);
#499=ORIENTED_EDGE('',*,*,#639,.T.);
#500=ORIENTED_EDGE('',*,*,#625,.T.);
#501=ORIENTED_EDGE('',*,*,#630,.T.);
#502=ORIENTED_EDGE('',*,*,#636,.T.);
#503=ORIENTED_EDGE('',*,*,#657,.F.);
#504=ORIENTED_EDGE('',*,*,#647,.F.);
#505=ORIENTED_EDGE('',*,*,#645,.F.);
#506=ORIENTED_EDGE('',*,*,#650,.F.);
#507=ORIENTED_EDGE('',*,*,#653,.F.);
#508=ORIENTED_EDGE('',*,*,#654,.F.);
#509=ORIENTED_EDGE('',*,*,#659,.F.);
#510=ORIENTED_EDGE('',*,*,#660,.T.);
#511=ORIENTED_EDGE('',*,*,#661,.F.);
#512=ORIENTED_EDGE('',*,*,#662,.F.);
#513=ORIENTED_EDGE('',*,*,#663,.T.);
#514=ORIENTED_EDGE('',*,*,#662,.T.);
#515=ORIENTED_EDGE('',*,*,#664,.F.);
#516=ORIENTED_EDGE('',*,*,#665,.F.);
#517=ORIENTED_EDGE('',*,*,#666,.T.);
#518=ORIENTED_EDGE('',*,*,#665,.T.);
#519=ORIENTED_EDGE('',*,*,#667,.F.);
#520=ORIENTED_EDGE('',*,*,#668,.F.);
#521=ORIENTED_EDGE('',*,*,#669,.T.);
#522=ORIENTED_EDGE('',*,*,#668,.T.);
#523=ORIENTED_EDGE('',*,*,#670,.F.);
#524=ORIENTED_EDGE('',*,*,#660,.F.);
#525=ORIENTED_EDGE('',*,*,#670,.T.);
#526=ORIENTED_EDGE('',*,*,#667,.T.);
#527=ORIENTED_EDGE('',*,*,#664,.T.);
#528=ORIENTED_EDGE('',*,*,#661,.T.);
#529=ORIENTED_EDGE('',*,*,#669,.F.);
#530=ORIENTED_EDGE('',*,*,#659,.T.);
#531=ORIENTED_EDGE('',*,*,#663,.F.);
#532=ORIENTED_EDGE('',*,*,#666,.F.);
#533=ORIENTED_EDGE('',*,*,#671,.T.);
#534=ORIENTED_EDGE('',*,*,#672,.T.);
#535=ORIENTED_EDGE('',*,*,#673,.F.);
#536=ORIENTED_EDGE('',*,*,#674,.F.);
#537=ORIENTED_EDGE('',*,*,#675,.T.);
#538=ORIENTED_EDGE('',*,*,#674,.T.);
#539=ORIENTED_EDGE('',*,*,#676,.F.);
#540=ORIENTED_EDGE('',*,*,#677,.F.);
#541=ORIENTED_EDGE('',*,*,#678,.T.);
#542=ORIENTED_EDGE('',*,*,#677,.T.);
#543=ORIENTED_EDGE('',*,*,#679,.F.);
#544=ORIENTED_EDGE('',*,*,#680,.F.);
#545=ORIENTED_EDGE('',*,*,#681,.T.);
#546=ORIENTED_EDGE('',*,*,#680,.T.);
#547=ORIENTED_EDGE('',*,*,#682,.F.);
#548=ORIENTED_EDGE('',*,*,#672,.F.);
#549=ORIENTED_EDGE('',*,*,#682,.T.);
#550=ORIENTED_EDGE('',*,*,#679,.T.);
#551=ORIENTED_EDGE('',*,*,#676,.T.);
#552=ORIENTED_EDGE('',*,*,#673,.T.);
#553=ORIENTED_EDGE('',*,*,#681,.F.);
#554=ORIENTED_EDGE('',*,*,#671,.F.);
#555=ORIENTED_EDGE('',*,*,#675,.F.);
#556=ORIENTED_EDGE('',*,*,#678,.F.);
#557=EDGE_CURVE('',#683,#683,#767,.T.);
#558=EDGE_CURVE('',#683,#684,#77,.F.);
#559=EDGE_CURVE('',#684,#684,#768,.T.);
#560=EDGE_CURVE('',#685,#685,#769,.F.);
#561=EDGE_CURVE('',#685,#686,#78,.F.);
#562=EDGE_CURVE('',#686,#686,#770,.F.);
#563=EDGE_CURVE('',#687,#688,#79,.T.);
#564=EDGE_CURVE('',#688,#689,#80,.T.);
#565=EDGE_CURVE('',#690,#689,#81,.T.);
#566=EDGE_CURVE('',#687,#690,#82,.T.);
#567=EDGE_CURVE('',#691,#687,#83,.T.);
#568=EDGE_CURVE('',#692,#690,#84,.F.);
#569=EDGE_CURVE('',#691,#692,#85,.T.);
#570=EDGE_CURVE('',#693,#691,#86,.T.);
#571=EDGE_CURVE('',#694,#692,#87,.F.);
#572=EDGE_CURVE('',#693,#694,#88,.T.);
#573=EDGE_CURVE('',#688,#693,#89,.T.);
#574=EDGE_CURVE('',#689,#694,#90,.T.);
#575=EDGE_CURVE('',#695,#696,#91,.T.);
#576=EDGE_CURVE('',#696,#697,#92,.T.);
#577=EDGE_CURVE('',#698,#697,#93,.T.);
#578=EDGE_CURVE('',#695,#698,#94,.T.);
#579=EDGE_CURVE('',#699,#695,#95,.T.);
#580=EDGE_CURVE('',#700,#698,#96,.T.);
#581=EDGE_CURVE('',#699,#700,#97,.T.);
#582=EDGE_CURVE('',#701,#699,#98,.T.);
#583=EDGE_CURVE('',#702,#700,#99,.F.);
#584=EDGE_CURVE('',#701,#702,#100,.T.);
#585=EDGE_CURVE('',#696,#701,#101,.T.);
#586=EDGE_CURVE('',#697,#702,#102,.F.);
#587=EDGE_CURVE('',#703,#704,#103,.T.);
#588=EDGE_CURVE('',#704,#705,#104,.T.);
#589=EDGE_CURVE('',#706,#705,#105,.T.);
#590=EDGE_CURVE('',#703,#706,#106,.T.);
#591=EDGE_CURVE('',#707,#703,#107,.T.);
#592=EDGE_CURVE('',#708,#706,#108,.F.);
#593=EDGE_CURVE('',#707,#708,#109,.T.);
#594=EDGE_CURVE('',#709,#707,#110,.T.);
#595=EDGE_CURVE('',#710,#708,#111,.F.);
#596=EDGE_CURVE('',#709,#710,#112,.T.);
#597=EDGE_CURVE('',#711,#709,#113,.T.);
#598=EDGE_CURVE('',#712,#710,#114,.T.);
#599=EDGE_CURVE('',#711,#712,#115,.T.);
#600=EDGE_CURVE('',#713,#711,#116,.T.);
#601=EDGE_CURVE('',#714,#712,#117,.T.);
#602=EDGE_CURVE('',#713,#714,#118,.T.);
#603=EDGE_CURVE('',#704,#713,#119,.T.);
#604=EDGE_CURVE('',#705,#714,#120,.F.);
#605=EDGE_CURVE('',#715,#716,#121,.T.);
#606=EDGE_CURVE('',#716,#717,#122,.T.);
#607=EDGE_CURVE('',#718,#717,#123,.T.);
#608=EDGE_CURVE('',#715,#718,#124,.T.);
#609=EDGE_CURVE('',#719,#715,#125,.T.);
#610=EDGE_CURVE('',#720,#718,#126,.F.);
#611=EDGE_CURVE('',#719,#720,#127,.T.);
#612=EDGE_CURVE('',#721,#719,#128,.T.);
#613=EDGE_CURVE('',#722,#720,#129,.F.);
#614=EDGE_CURVE('',#721,#722,#130,.T.);
#615=EDGE_CURVE('',#723,#721,#131,.T.);
#616=EDGE_CURVE('',#724,#722,#132,.T.);
#617=EDGE_CURVE('',#723,#724,#133,.T.);
#618=EDGE_CURVE('',#725,#723,#134,.T.);
#619=EDGE_CURVE('',#726,#724,#135,.T.);
#620=EDGE_CURVE('',#725,#726,#136,.T.);
#621=EDGE_CURVE('',#716,#725,#137,.T.);
#622=EDGE_CURVE('',#717,#726,#138,.F.);
#623=EDGE_CURVE('',#727,#728,#139,.T.);
#624=EDGE_CURVE('',#728,#729,#10,.T.);
#625=EDGE_CURVE('',#730,#729,#140,.F.);
#626=EDGE_CURVE('',#727,#730,#11,.T.);
#627=EDGE_CURVE('',#731,#732,#771,.T.);
#628=EDGE_CURVE('',#732,#733,#141,.T.);
#629=EDGE_CURVE('',#733,#734,#12,.T.);
#630=EDGE_CURVE('',#729,#734,#142,.F.);
#631=EDGE_CURVE('',#728,#735,#143,.T.);
#632=EDGE_CURVE('',#735,#736,#772,.F.);
#633=EDGE_CURVE('',#736,#731,#144,.T.);
#634=EDGE_CURVE('',#733,#737,#145,.T.);
#635=EDGE_CURVE('',#737,#738,#13,.T.);
#636=EDGE_CURVE('',#734,#738,#146,.T.);
#637=EDGE_CURVE('',#739,#740,#773,.T.);
#638=EDGE_CURVE('',#740,#727,#147,.T.);
#639=EDGE_CURVE('',#738,#730,#148,.T.);
#640=EDGE_CURVE('',#737,#741,#149,.T.);
#641=EDGE_CURVE('',#741,#742,#774,.F.);
#642=EDGE_CURVE('',#742,#739,#150,.T.);
#643=EDGE_CURVE('',#740,#735,#151,.F.);
#644=EDGE_CURVE('',#743,#739,#152,.T.);
#645=EDGE_CURVE('',#743,#744,#153,.T.);
#646=EDGE_CURVE('',#744,#736,#154,.T.);
#647=EDGE_CURVE('',#744,#745,#155,.T.);
#648=EDGE_CURVE('',#745,#731,#156,.T.);
#649=EDGE_CURVE('',#746,#742,#157,.T.);
#650=EDGE_CURVE('',#746,#743,#158,.T.);
#651=EDGE_CURVE('',#747,#741,#159,.T.);
#652=EDGE_CURVE('',#748,#747,#160,.T.);
#653=EDGE_CURVE('',#748,#746,#161,.T.);
#654=EDGE_CURVE('',#749,#748,#162,.T.);
#655=EDGE_CURVE('',#750,#747,#163,.F.);
#656=EDGE_CURVE('',#749,#750,#164,.T.);
#657=EDGE_CURVE('',#745,#749,#165,.T.);
#658=EDGE_CURVE('',#732,#750,#166,.T.);
#659=EDGE_CURVE('',#751,#752,#167,.T.);
#660=EDGE_CURVE('',#751,#753,#168,.T.);
#661=EDGE_CURVE('',#754,#753,#169,.F.);
#662=EDGE_CURVE('',#752,#754,#170,.T.);
#663=EDGE_CURVE('',#755,#752,#171,.T.);
#664=EDGE_CURVE('',#756,#754,#172,.F.);
#665=EDGE_CURVE('',#755,#756,#173,.T.);
#666=EDGE_CURVE('',#757,#755,#174,.T.);
#667=EDGE_CURVE('',#758,#756,#175,.T.);
#668=EDGE_CURVE('',#757,#758,#176,.T.);
#669=EDGE_CURVE('',#751,#757,#177,.T.);
#670=EDGE_CURVE('',#753,#758,#178,.T.);
#671=EDGE_CURVE('',#759,#760,#179,.T.);
#672=EDGE_CURVE('',#760,#761,#180,.T.);
#673=EDGE_CURVE('',#762,#761,#181,.F.);
#674=EDGE_CURVE('',#759,#762,#182,.T.);
#675=EDGE_CURVE('',#763,#759,#183,.T.);
#676=EDGE_CURVE('',#764,#762,#184,.T.);
#677=EDGE_CURVE('',#763,#764,#185,.T.);
#678=EDGE_CURVE('',#765,#763,#186,.T.);
#679=EDGE_CURVE('',#766,#764,#187,.T.);
#680=EDGE_CURVE('',#765,#766,#188,.T.);
#681=EDGE_CURVE('',#760,#765,#189,.T.);
#682=EDGE_CURVE('',#761,#766,#190,.F.);
#683=VERTEX_POINT('',#1364);
#684=VERTEX_POINT('',#1366);
#685=VERTEX_POINT('',#1373);
#686=VERTEX_POINT('',#1375);
#687=VERTEX_POINT('',#1379);
#688=VERTEX_POINT('',#1380);
#689=VERTEX_POINT('',#1382);
#690=VERTEX_POINT('',#1384);
#691=VERTEX_POINT('',#1388);
#692=VERTEX_POINT('',#1390);
#693=VERTEX_POINT('',#1394);
#694=VERTEX_POINT('',#1396);
#695=VERTEX_POINT('',#1406);
#696=VERTEX_POINT('',#1407);
#697=VERTEX_POINT('',#1409);
#698=VERTEX_POINT('',#1411);
#699=VERTEX_POINT('',#1415);
#700=VERTEX_POINT('',#1417);
#701=VERTEX_POINT('',#1421);
#702=VERTEX_POINT('',#1423);
#703=VERTEX_POINT('',#1433);
#704=VERTEX_POINT('',#1434);
#705=VERTEX_POINT('',#1436);
#706=VERTEX_POINT('',#1438);
#707=VERTEX_POINT('',#1442);
#708=VERTEX_POINT('',#1444);
#709=VERTEX_POINT('',#1448);
#710=VERTEX_POINT('',#1450);
#711=VERTEX_POINT('',#1454);
#712=VERTEX_POINT('',#1456);
#713=VERTEX_POINT('',#1460);
#714=VERTEX_POINT('',#1462);
#715=VERTEX_POINT('',#1469);
#716=VERTEX_POINT('',#1470);
#717=VERTEX_POINT('',#1472);
#718=VERTEX_POINT('',#1474);
#719=VERTEX_POINT('',#1478);
#720=VERTEX_POINT('',#1480);
#721=VERTEX_POINT('',#1484);
#722=VERTEX_POINT('',#1486);
#723=VERTEX_POINT('',#1490);
#724=VERTEX_POINT('',#1492);
#725=VERTEX_POINT('',#1496);
#726=VERTEX_POINT('',#1498);
#727=VERTEX_POINT('',#1508);
#728=VERTEX_POINT('',#1509);
#729=VERTEX_POINT('',#1514);
#730=VERTEX_POINT('',#1516);
#731=VERTEX_POINT('',#1523);
#732=VERTEX_POINT('',#1524);
#733=VERTEX_POINT('',#1526);
#734=VERTEX_POINT('',#1531);
#735=VERTEX_POINT('',#1534);
#736=VERTEX_POINT('',#1536);
#737=VERTEX_POINT('',#1540);
#738=VERTEX_POINT('',#1545);
#739=VERTEX_POINT('',#1549);
#740=VERTEX_POINT('',#1550);
#741=VERTEX_POINT('',#1554);
#742=VERTEX_POINT('',#1556);
#743=VERTEX_POINT('',#1562);
#744=VERTEX_POINT('',#1564);
#745=VERTEX_POINT('',#1568);
#746=VERTEX_POINT('',#1572);
#747=VERTEX_POINT('',#1576);
#748=VERTEX_POINT('',#1578);
#749=VERTEX_POINT('',#1582);
#750=VERTEX_POINT('',#1584);
#751=VERTEX_POINT('',#1594);
#752=VERTEX_POINT('',#1595);
#753=VERTEX_POINT('',#1597);
#754=VERTEX_POINT('',#1599);
#755=VERTEX_POINT('',#1603);
#756=VERTEX_POINT('',#1605);
#757=VERTEX_POINT('',#1609);
#758=VERTEX_POINT('',#1611);
#759=VERTEX_POINT('',#1621);
#760=VERTEX_POINT('',#1622);
#761=VERTEX_POINT('',#1624);
#762=VERTEX_POINT('',#1626);
#763=VERTEX_POINT('',#1630);
#764=VERTEX_POINT('',#1632);
#765=VERTEX_POINT('',#1636);
#766=VERTEX_POINT('',#1638);
#767=CIRCLE('',#1039,0.9);
#768=CIRCLE('',#1040,0.9);
#769=CIRCLE('',#1045,0.9);
#770=CIRCLE('',#1046,0.9);
#771=CIRCLE('',#1078,4.3);
#772=CIRCLE('',#1079,4.3);
#773=CIRCLE('',#1082,4.3);
#774=CIRCLE('',#1083,4.3);
#775=EDGE_LOOP('',(#305,#306,#307,#308));
#776=EDGE_LOOP('',(#309));
#777=EDGE_LOOP('',(#310));
#778=EDGE_LOOP('',(#311,#312,#313,#314));
#779=EDGE_LOOP('',(#315,#316,#317,#318));
#780=EDGE_LOOP('',(#319,#320,#321,#322));
#781=EDGE_LOOP('',(#323,#324,#325,#326));
#782=EDGE_LOOP('',(#327,#328,#329,#330));
#783=EDGE_LOOP('',(#331,#332,#333,#334));
#784=EDGE_LOOP('',(#335));
#785=EDGE_LOOP('',(#336,#337,#338,#339));
#786=EDGE_LOOP('',(#340));
#787=EDGE_LOOP('',(#341,#342,#343,#344));
#788=EDGE_LOOP('',(#345,#346,#347,#348));
#789=EDGE_LOOP('',(#349,#350,#351,#352));
#790=EDGE_LOOP('',(#353,#354,#355,#356));
#791=EDGE_LOOP('',(#357,#358,#359,#360));
#792=EDGE_LOOP('',(#361,#362,#363,#364));
#793=EDGE_LOOP('',(#365,#366,#367,#368));
#794=EDGE_LOOP('',(#369,#370,#371,#372));
#795=EDGE_LOOP('',(#373,#374,#375,#376));
#796=EDGE_LOOP('',(#377,#378,#379,#380));
#797=EDGE_LOOP('',(#381,#382,#383,#384));
#798=EDGE_LOOP('',(#385,#386,#387,#388));
#799=EDGE_LOOP('',(#389,#390,#391,#392));
#800=EDGE_LOOP('',(#393,#394,#395,#396));
#801=EDGE_LOOP('',(#397,#398,#399,#400));
#802=EDGE_LOOP('',(#401,#402,#403,#404));
#803=EDGE_LOOP('',(#405,#406,#407,#408));
#804=EDGE_LOOP('',(#409,#410,#411,#412));
#805=EDGE_LOOP('',(#413,#414,#415,#416,#417,#418));
#806=EDGE_LOOP('',(#419,#420,#421,#422,#423,#424));
#807=EDGE_LOOP('',(#425,#426,#427,#428,#429,#430));
#808=EDGE_LOOP('',(#431,#432,#433,#434,#435,#436));
#809=EDGE_LOOP('',(#437,#438,#439,#440));
#810=EDGE_LOOP('',(#441,#442,#443,#444,#445,#446,#447,#448));
#811=EDGE_LOOP('',(#449,#450,#451,#452));
#812=EDGE_LOOP('',(#453,#454,#455,#456,#457,#458,#459,#460));
#813=EDGE_LOOP('',(#461,#462,#463,#464));
#814=EDGE_LOOP('',(#465,#466,#467,#468,#469,#470));
#815=EDGE_LOOP('',(#471,#472,#473,#474));
#816=EDGE_LOOP('',(#475,#476,#477,#478));
#817=EDGE_LOOP('',(#479,#480,#481,#482,#483));
#818=EDGE_LOOP('',(#484,#485,#486,#487));
#819=EDGE_LOOP('',(#488,#489,#490,#491,#492));
#820=EDGE_LOOP('',(#493,#494,#495,#496,#497,#498));
#821=EDGE_LOOP('',(#499,#500,#501,#502));
#822=EDGE_LOOP('',(#503,#504,#505,#506,#507,#508));
#823=EDGE_LOOP('',(#509,#510,#511,#512));
#824=EDGE_LOOP('',(#513,#514,#515,#516));
#825=EDGE_LOOP('',(#517,#518,#519,#520));
#826=EDGE_LOOP('',(#521,#522,#523,#524));
#827=EDGE_LOOP('',(#525,#526,#527,#528));
#828=EDGE_LOOP('',(#529,#530,#531,#532));
#829=EDGE_LOOP('',(#533,#534,#535,#536));
#830=EDGE_LOOP('',(#537,#538,#539,#540));
#831=EDGE_LOOP('',(#541,#542,#543,#544));
#832=EDGE_LOOP('',(#545,#546,#547,#548));
#833=EDGE_LOOP('',(#549,#550,#551,#552));
#834=EDGE_LOOP('',(#553,#554,#555,#556));
#835=FACE_BOUND('',#775,.T.);
#836=FACE_BOUND('',#776,.T.);
#837=FACE_BOUND('',#777,.T.);
#838=FACE_BOUND('',#778,.T.);
#839=FACE_BOUND('',#779,.T.);
#840=FACE_BOUND('',#780,.T.);
#841=FACE_BOUND('',#781,.T.);
#842=FACE_BOUND('',#782,.T.);
#843=FACE_BOUND('',#783,.T.);
#844=FACE_BOUND('',#784,.T.);
#845=FACE_BOUND('',#785,.T.);
#846=FACE_BOUND('',#786,.T.);
#847=FACE_BOUND('',#787,.T.);
#848=FACE_BOUND('',#788,.T.);
#849=FACE_BOUND('',#789,.T.);
#850=FACE_BOUND('',#790,.T.);
#851=FACE_BOUND('',#791,.T.);
#852=FACE_BOUND('',#792,.T.);
#853=FACE_BOUND('',#793,.T.);
#854=FACE_BOUND('',#794,.T.);
#855=FACE_BOUND('',#795,.T.);
#856=FACE_BOUND('',#796,.T.);
#857=FACE_BOUND('',#797,.T.);
#858=FACE_BOUND('',#798,.T.);
#859=FACE_BOUND('',#799,.T.);
#860=FACE_BOUND('',#800,.T.);
#861=FACE_BOUND('',#801,.T.);
#862=FACE_BOUND('',#802,.T.);
#863=FACE_BOUND('',#803,.T.);
#864=FACE_BOUND('',#804,.T.);
#865=FACE_BOUND('',#805,.T.);
#866=FACE_BOUND('',#806,.T.);
#867=FACE_BOUND('',#807,.T.);
#868=FACE_BOUND('',#808,.T.);
#869=FACE_BOUND('',#809,.T.);
#870=FACE_BOUND('',#810,.T.);
#871=FACE_BOUND('',#811,.T.);
#872=FACE_BOUND('',#812,.T.);
#873=FACE_BOUND('',#813,.T.);
#874=FACE_BOUND('',#814,.T.);
#875=FACE_BOUND('',#815,.T.);
#876=FACE_BOUND('',#816,.T.);
#877=FACE_BOUND('',#817,.T.);
#878=FACE_BOUND('',#818,.T.);
#879=FACE_BOUND('',#819,.T.);
#880=FACE_BOUND('',#820,.T.);
#881=FACE_BOUND('',#821,.T.);
#882=FACE_BOUND('',#822,.T.);
#883=FACE_BOUND('',#823,.T.);
#884=FACE_BOUND('',#824,.T.);
#885=FACE_BOUND('',#825,.T.);
#886=FACE_BOUND('',#826,.T.);
#887=FACE_BOUND('',#827,.T.);
#888=FACE_BOUND('',#828,.T.);
#889=FACE_BOUND('',#829,.T.);
#890=FACE_BOUND('',#830,.T.);
#891=FACE_BOUND('',#831,.T.);
#892=FACE_BOUND('',#832,.T.);
#893=FACE_BOUND('',#833,.T.);
#894=FACE_BOUND('',#834,.T.);
#895=CYLINDRICAL_SURFACE('',#1038,0.9);
#896=CYLINDRICAL_SURFACE('',#1044,0.9);
#897=CYLINDRICAL_SURFACE('',#1076,4.3);
#898=CYLINDRICAL_SURFACE('',#1077,4.3);
#899=CYLINDRICAL_SURFACE('',#1080,4.3);
#900=CYLINDRICAL_SURFACE('',#1081,4.3);
#901=ADVANCED_FACE('',(#835),#895,.T.);
#902=ADVANCED_FACE('',(#836),#28,.T.);
#903=ADVANCED_FACE('',(#837),#29,.F.);
#904=ADVANCED_FACE('',(#838),#896,.F.);
#905=ADVANCED_FACE('',(#839),#30,.T.);
#906=ADVANCED_FACE('',(#840),#31,.T.);
#907=ADVANCED_FACE('',(#841),#32,.T.);
#908=ADVANCED_FACE('',(#842),#33,.T.);
#909=ADVANCED_FACE('',(#843,#844),#34,.T.);
#910=ADVANCED_FACE('',(#845,#846),#35,.F.);
#911=ADVANCED_FACE('',(#847),#36,.T.);
#912=ADVANCED_FACE('',(#848),#37,.T.);
#913=ADVANCED_FACE('',(#849),#38,.T.);
#914=ADVANCED_FACE('',(#850),#39,.T.);
#915=ADVANCED_FACE('',(#851),#40,.T.);
#916=ADVANCED_FACE('',(#852),#41,.T.);
#917=ADVANCED_FACE('',(#853),#42,.T.);
#918=ADVANCED_FACE('',(#854),#43,.T.);
#919=ADVANCED_FACE('',(#855),#44,.T.);
#920=ADVANCED_FACE('',(#856),#45,.T.);
#921=ADVANCED_FACE('',(#857),#46,.T.);
#922=ADVANCED_FACE('',(#858),#47,.T.);
#923=ADVANCED_FACE('',(#859),#48,.T.);
#924=ADVANCED_FACE('',(#860),#49,.T.);
#925=ADVANCED_FACE('',(#861),#50,.T.);
#926=ADVANCED_FACE('',(#862),#51,.T.);
#927=ADVANCED_FACE('',(#863),#52,.T.);
#928=ADVANCED_FACE('',(#864),#53,.T.);
#929=ADVANCED_FACE('',(#865,#866),#54,.T.);
#930=ADVANCED_FACE('',(#867,#868),#55,.F.);
#931=ADVANCED_FACE('',(#869),#897,.T.);
#932=ADVANCED_FACE('',(#870),#898,.T.);
#933=ADVANCED_FACE('',(#871),#899,.T.);
#934=ADVANCED_FACE('',(#872),#900,.T.);
#935=ADVANCED_FACE('',(#873),#56,.T.);
#936=ADVANCED_FACE('',(#874),#57,.T.);
#937=ADVANCED_FACE('',(#875),#58,.T.);
#938=ADVANCED_FACE('',(#876),#59,.T.);
#939=ADVANCED_FACE('',(#877),#60,.T.);
#940=ADVANCED_FACE('',(#878),#61,.T.);
#941=ADVANCED_FACE('',(#879),#62,.T.);
#942=ADVANCED_FACE('',(#880),#63,.T.);
#943=ADVANCED_FACE('',(#881,#882),#64,.F.);
#944=ADVANCED_FACE('',(#883),#65,.T.);
#945=ADVANCED_FACE('',(#884),#66,.T.);
#946=ADVANCED_FACE('',(#885),#67,.T.);
#947=ADVANCED_FACE('',(#886),#68,.T.);
#948=ADVANCED_FACE('',(#887),#69,.T.);
#949=ADVANCED_FACE('',(#888),#70,.F.);
#950=ADVANCED_FACE('',(#889),#71,.T.);
#951=ADVANCED_FACE('',(#890),#72,.T.);
#952=ADVANCED_FACE('',(#891),#73,.T.);
#953=ADVANCED_FACE('',(#892),#74,.T.);
#954=ADVANCED_FACE('',(#893),#75,.T.);
#955=ADVANCED_FACE('',(#894),#76,.F.);
#956=CLOSED_SHELL('',(#901,#902,#903));
#957=CLOSED_SHELL('',(#904,#905,#906,#907,#908,#909,#910));
#958=CLOSED_SHELL('',(#911,#912,#913,#914,#915,#916));
#959=CLOSED_SHELL('',(#917,#918,#919,#920,#921,#922,#923,#924,#925,#926,
#927,#928,#929,#930));
#960=CLOSED_SHELL('',(#931,#932,#933,#934,#935,#936,#937,#938,#939,#940,
#941,#942,#943));
#961=CLOSED_SHELL('',(#944,#945,#946,#947,#948,#949));
#962=CLOSED_SHELL('',(#950,#951,#952,#953,#954,#955));
#963=STYLED_ITEM('',(#970),#1016);
#964=STYLED_ITEM('',(#971),#1017);
#965=STYLED_ITEM('',(#972),#1018);
#966=STYLED_ITEM('',(#973),#1019);
#967=STYLED_ITEM('',(#974),#1020);
#968=STYLED_ITEM('',(#975),#1021);
#969=STYLED_ITEM('',(#976),#1022);
#970=PRESENTATION_STYLE_ASSIGNMENT((#977));
#971=PRESENTATION_STYLE_ASSIGNMENT((#978));
#972=PRESENTATION_STYLE_ASSIGNMENT((#979));
#973=PRESENTATION_STYLE_ASSIGNMENT((#980));
#974=PRESENTATION_STYLE_ASSIGNMENT((#981));
#975=PRESENTATION_STYLE_ASSIGNMENT((#982));
#976=PRESENTATION_STYLE_ASSIGNMENT((#983));
#977=SURFACE_STYLE_USAGE(.BOTH.,#984);
#978=SURFACE_STYLE_USAGE(.BOTH.,#985);
#979=SURFACE_STYLE_USAGE(.BOTH.,#986);
#980=SURFACE_STYLE_USAGE(.BOTH.,#987);
#981=SURFACE_STYLE_USAGE(.BOTH.,#988);
#982=SURFACE_STYLE_USAGE(.BOTH.,#989);
#983=SURFACE_STYLE_USAGE(.BOTH.,#990);
#984=SURFACE_SIDE_STYLE('',(#991));
#985=SURFACE_SIDE_STYLE('',(#992));
#986=SURFACE_SIDE_STYLE('',(#993));
#987=SURFACE_SIDE_STYLE('',(#994));
#988=SURFACE_SIDE_STYLE('',(#995));
#989=SURFACE_SIDE_STYLE('',(#996));
#990=SURFACE_SIDE_STYLE('',(#997));
#991=SURFACE_STYLE_FILL_AREA(#998);
#992=SURFACE_STYLE_FILL_AREA(#999);
#993=SURFACE_STYLE_FILL_AREA(#1000);
#994=SURFACE_STYLE_FILL_AREA(#1001);
#995=SURFACE_STYLE_FILL_AREA(#1002);
#996=SURFACE_STYLE_FILL_AREA(#1003);
#997=SURFACE_STYLE_FILL_AREA(#1004);
#998=FILL_AREA_STYLE('',(#1005));
#999=FILL_AREA_STYLE('',(#1006));
#1000=FILL_AREA_STYLE('',(#1007));
#1001=FILL_AREA_STYLE('',(#1008));
#1002=FILL_AREA_STYLE('',(#1009));
#1003=FILL_AREA_STYLE('',(#1010));
#1004=FILL_AREA_STYLE('',(#1011));
#1005=FILL_AREA_STYLE_COLOUR('',#1012);
#1006=FILL_AREA_STYLE_COLOUR('',#1013);
#1007=FILL_AREA_STYLE_COLOUR('',#1014);
#1008=FILL_AREA_STYLE_COLOUR('',#1015);
#1009=FILL_AREA_STYLE_COLOUR('',#1012);
#1010=FILL_AREA_STYLE_COLOUR('',#1012);
#1011=FILL_AREA_STYLE_COLOUR('',#1014);
#1012=COLOUR_RGB('',0.964705882352941,0.964705882352941,0.952941176470588);
#1013=COLOUR_RGB('',0.247058823529412,0.247058823529412,0.247058823529412);
#1014=COLOUR_RGB('',0.0980392156862745,0.0980392156862745,0.0980392156862745);
#1015=COLOUR_RGB('',0.972549019607843,0.968627450980392,0.929411764705882);
#1016=MANIFOLD_SOLID_BREP('Body3',#956);
#1017=MANIFOLD_SOLID_BREP('Body4',#957);
#1018=MANIFOLD_SOLID_BREP('Body1',#958);
#1019=MANIFOLD_SOLID_BREP('Body5',#959);
#1020=MANIFOLD_SOLID_BREP('Body33',#960);
#1021=MANIFOLD_SOLID_BREP('Body2',#961);
#1022=MANIFOLD_SOLID_BREP('Body32',#962);
#1023=SHAPE_DEFINITION_REPRESENTATION(#1687,#1030);
#1024=SHAPE_DEFINITION_REPRESENTATION(#1688,#1031);
#1025=SHAPE_DEFINITION_REPRESENTATION(#1689,#1032);
#1026=SHAPE_DEFINITION_REPRESENTATION(#1690,#1033);
#1027=SHAPE_DEFINITION_REPRESENTATION(#1691,#1034);
#1028=SHAPE_DEFINITION_REPRESENTATION(#1692,#1035);
#1029=SHAPE_DEFINITION_REPRESENTATION(#1693,#1036);
#1030=SHAPE_REPRESENTATION('Body3',(#1037),#1652);
#1031=SHAPE_REPRESENTATION('Body4',(#1043),#1653);
#1032=SHAPE_REPRESENTATION('Body1',(#1053),#1654);
#1033=SHAPE_REPRESENTATION('Body5',(#1060),#1655);
#1034=SHAPE_REPRESENTATION('Body33',(#1075),#1656);
#1035=SHAPE_REPRESENTATION('Body2',(#1093),#1657);
#1036=SHAPE_REPRESENTATION('Body32',(#1100),#1658);
#1037=AXIS2_PLACEMENT_3D('',#1361,#1107,#1108);
#1038=AXIS2_PLACEMENT_3D('',#1362,#1109,#1110);
#1039=AXIS2_PLACEMENT_3D('',#1363,#1111,#1112);
#1040=AXIS2_PLACEMENT_3D('',#1367,#1114,#1115);
#1041=AXIS2_PLACEMENT_3D('',#1368,#1116,#1117);
#1042=AXIS2_PLACEMENT_3D('',#1369,#1118,#1119);
#1043=AXIS2_PLACEMENT_3D('',#1370,#1120,#1121);
#1044=AXIS2_PLACEMENT_3D('',#1371,#1122,#1123);
#1045=AXIS2_PLACEMENT_3D('',#1372,#1124,#1125);
#1046=AXIS2_PLACEMENT_3D('',#1376,#1127,#1128);
#1047=AXIS2_PLACEMENT_3D('',#1377,#1129,#1130);
#1048=AXIS2_PLACEMENT_3D('',#1386,#1135,#1136);
#1049=AXIS2_PLACEMENT_3D('',#1392,#1140,#1141);
#1050=AXIS2_PLACEMENT_3D('',#1398,#1145,#1146);
#1051=AXIS2_PLACEMENT_3D('',#1401,#1149,#1150);
#1052=AXIS2_PLACEMENT_3D('',#1402,#1151,#1152);
#1053=AXIS2_PLACEMENT_3D('',#1403,#1153,#1154);
#1054=AXIS2_PLACEMENT_3D('',#1404,#1155,#1156);
#1055=AXIS2_PLACEMENT_3D('',#1413,#1161,#1162);
#1056=AXIS2_PLACEMENT_3D('',#1419,#1166,#1167);
#1057=AXIS2_PLACEMENT_3D('',#1425,#1171,#1172);
#1058=AXIS2_PLACEMENT_3D('',#1428,#1175,#1176);
#1059=AXIS2_PLACEMENT_3D('',#1429,#1177,#1178);
#1060=AXIS2_PLACEMENT_3D('',#1430,#1179,#1180);
#1061=AXIS2_PLACEMENT_3D('',#1431,#1181,#1182);
#1062=AXIS2_PLACEMENT_3D('',#1440,#1187,#1188);
#1063=AXIS2_PLACEMENT_3D('',#1446,#1192,#1193);
#1064=AXIS2_PLACEMENT_3D('',#1452,#1197,#1198);
#1065=AXIS2_PLACEMENT_3D('',#1458,#1202,#1203);
#1066=AXIS2_PLACEMENT_3D('',#1464,#1207,#1208);
#1067=AXIS2_PLACEMENT_3D('',#1467,#1211,#1212);
#1068=AXIS2_PLACEMENT_3D('',#1476,#1217,#1218);
#1069=AXIS2_PLACEMENT_3D('',#1482,#1222,#1223);
#1070=AXIS2_PLACEMENT_3D('',#1488,#1227,#1228);
#1071=AXIS2_PLACEMENT_3D('',#1494,#1232,#1233);
#1072=AXIS2_PLACEMENT_3D('',#1500,#1237,#1238);
#1073=AXIS2_PLACEMENT_3D('',#1503,#1241,#1242);
#1074=AXIS2_PLACEMENT_3D('',#1504,#1243,#1244);
#1075=AXIS2_PLACEMENT_3D('',#1505,#1245,#1246);
#1076=AXIS2_PLACEMENT_3D('',#1506,#1247,#1248);
#1077=AXIS2_PLACEMENT_3D('',#1521,#1251,#1252);
#1078=AXIS2_PLACEMENT_3D('',#1522,#1253,#1254);
#1079=AXIS2_PLACEMENT_3D('',#1535,#1258,#1259);
#1080=AXIS2_PLACEMENT_3D('',#1538,#1261,#1262);
#1081=AXIS2_PLACEMENT_3D('',#1547,#1265,#1266);
#1082=AXIS2_PLACEMENT_3D('',#1548,#1267,#1268);
#1083=AXIS2_PLACEMENT_3D('',#1555,#1272,#1273);
#1084=AXIS2_PLACEMENT_3D('',#1558,#1275,#1276);
#1085=AXIS2_PLACEMENT_3D('',#1560,#1278,#1279);
#1086=AXIS2_PLACEMENT_3D('',#1566,#1283,#1284);
#1087=AXIS2_PLACEMENT_3D('',#1570,#1287,#1288);
#1088=AXIS2_PLACEMENT_3D('',#1574,#1291,#1292);
#1089=AXIS2_PLACEMENT_3D('',#1580,#1296,#1297);
#1090=AXIS2_PLACEMENT_3D('',#1586,#1301,#1302);
#1091=AXIS2_PLACEMENT_3D('',#1589,#1305,#1306);
#1092=AXIS2_PLACEMENT_3D('',#1590,#1307,#1308);
#1093=AXIS2_PLACEMENT_3D('',#1591,#1309,#1310);
#1094=AXIS2_PLACEMENT_3D('',#1592,#1311,#1312);
#1095=AXIS2_PLACEMENT_3D('',#1601,#1317,#1318);
#1096=AXIS2_PLACEMENT_3D('',#1607,#1322,#1323);
#1097=AXIS2_PLACEMENT_3D('',#1613,#1327,#1328);
#1098=AXIS2_PLACEMENT_3D('',#1616,#1331,#1332);
#1099=AXIS2_PLACEMENT_3D('',#1617,#1333,#1334);
#1100=AXIS2_PLACEMENT_3D('',#1618,#1335,#1336);
#1101=AXIS2_PLACEMENT_3D('',#1619,#1337,#1338);
#1102=AXIS2_PLACEMENT_3D('',#1628,#1343,#1344);
#1103=AXIS2_PLACEMENT_3D('',#1634,#1348,#1349);
#1104=AXIS2_PLACEMENT_3D('',#1640,#1353,#1354);
#1105=AXIS2_PLACEMENT_3D('',#1643,#1357,#1358);
#1106=AXIS2_PLACEMENT_3D('',#1644,#1359,#1360);
#1107=DIRECTION('',(0.,0.,1.));
#1108=DIRECTION('',(1.,0.,0.));
#1109=DIRECTION('',(0.,0.,1.));
#1110=DIRECTION('',(1.,0.,0.));
#1111=DIRECTION('',(0.,0.,1.));
#1112=DIRECTION('',(1.,0.,0.));
#1113=DIRECTION('',(0.,0.,1.));
#1114=DIRECTION('',(0.,0.,1.));
#1115=DIRECTION('',(1.,0.,0.));
#1116=DIRECTION('',(0.,0.,1.));
#1117=DIRECTION('',(1.,0.,0.));
#1118=DIRECTION('',(0.,0.,1.));
#1119=DIRECTION('',(1.,0.,0.));
#1120=DIRECTION('',(0.,0.,1.));
#1121=DIRECTION('',(1.,0.,0.));
#1122=DIRECTION('',(0.,0.,1.));
#1123=DIRECTION('',(1.,0.,0.));
#1124=DIRECTION('',(0.,0.,1.));
#1125=DIRECTION('',(1.,0.,0.));
#1126=DIRECTION('',(0.,0.,1.));
#1127=DIRECTION('',(0.,0.,1.));
#1128=DIRECTION('',(1.,0.,0.));
#1129=DIRECTION('',(0.,-1.,0.));
#1130=DIRECTION('',(1.,0.,0.));
#1131=DIRECTION('',(1.,0.,0.));
#1132=DIRECTION('',(0.,0.,1.));
#1133=DIRECTION('',(1.,0.,0.));
#1134=DIRECTION('',(0.,0.,1.));
#1135=DIRECTION('',(-1.,0.,0.));
#1136=DIRECTION('',(0.,-1.,0.));
#1137=DIRECTION('',(0.,-1.,0.));
#1138=DIRECTION('',(0.,1.,0.));
#1139=DIRECTION('',(0.,0.,1.));
#1140=DIRECTION('',(0.,1.,0.));
#1141=DIRECTION('',(-1.,0.,0.));
#1142=DIRECTION('',(-1.,0.,0.));
#1143=DIRECTION('',(1.,0.,0.));
#1144=DIRECTION('',(0.,0.,1.));
#1145=DIRECTION('',(1.,0.,0.));
#1146=DIRECTION('',(0.,1.,0.));
#1147=DIRECTION('',(0.,1.,0.));
#1148=DIRECTION('',(0.,1.,0.));
#1149=DIRECTION('',(0.,0.,1.));
#1150=DIRECTION('',(1.,0.,0.));
#1151=DIRECTION('',(0.,0.,1.));
#1152=DIRECTION('',(1.,0.,0.));
#1153=DIRECTION('',(0.,0.,1.));
#1154=DIRECTION('',(1.,0.,0.));
#1155=DIRECTION('',(-1.,0.,0.));
#1156=DIRECTION('',(0.,1.,0.));
#1157=DIRECTION('',(0.,1.,0.));
#1158=DIRECTION('',(0.,0.,-1.));
#1159=DIRECTION('',(0.,1.,0.));
#1160=DIRECTION('',(0.,0.,-1.));
#1161=DIRECTION('',(6.30629380644792E-17,-1.,0.));
#1162=DIRECTION('',(-1.,-6.30629380644792E-17,0.));
#1163=DIRECTION('',(-1.,-6.30629380644792E-17,0.));
#1164=DIRECTION('',(-1.,0.,0.));
#1165=DIRECTION('',(0.,0.,-1.));
#1166=DIRECTION('',(1.,0.,0.));
#1167=DIRECTION('',(0.,-1.,0.));
#1168=DIRECTION('',(0.,-1.,0.));
#1169=DIRECTION('',(0.,1.,0.));
#1170=DIRECTION('',(0.,0.,-1.));
#1171=DIRECTION('',(-6.30629380644792E-17,1.,0.));
#1172=DIRECTION('',(1.,6.30629380644792E-17,0.));
#1173=DIRECTION('',(1.,6.30629380644792E-17,0.));
#1174=DIRECTION('',(-1.,0.,0.));
#1175=DIRECTION('',(0.,0.,1.));
#1176=DIRECTION('',(1.,0.,0.));
#1177=DIRECTION('',(0.,0.,-1.));
#1178=DIRECTION('',(-1.,0.,0.));
#1179=DIRECTION('',(0.,0.,1.));
#1180=DIRECTION('',(1.,0.,0.));
#1181=DIRECTION('',(1.,0.,0.));
#1182=DIRECTION('',(0.,1.,0.));
#1183=DIRECTION('',(0.,1.,0.));
#1184=DIRECTION('',(0.,0.,1.));
#1185=DIRECTION('',(0.,1.,0.));
#1186=DIRECTION('',(0.,0.,1.));
#1187=DIRECTION('',(0.,1.,0.));
#1188=DIRECTION('',(-1.,0.,0.));
#1189=DIRECTION('',(-1.,0.,0.));
#1190=DIRECTION('',(1.,0.,0.));
#1191=DIRECTION('',(0.,0.,1.));
#1192=DIRECTION('',(-1.,0.,0.));
#1193=DIRECTION('',(0.,-1.,0.));
#1194=DIRECTION('',(0.,-1.,0.));
#1195=DIRECTION('',(0.,1.,0.));
#1196=DIRECTION('',(0.,0.,1.));
#1197=DIRECTION('',(0.,-1.,0.));
#1198=DIRECTION('',(1.,0.,0.));
#1199=DIRECTION('',(1.,0.,0.));
#1200=DIRECTION('',(1.,0.,0.));
#1201=DIRECTION('',(0.,0.,1.));
#1202=DIRECTION('',(1.,0.,0.));
#1203=DIRECTION('',(0.,1.,0.));
#1204=DIRECTION('',(0.,1.,0.));
#1205=DIRECTION('',(0.,1.,0.));
#1206=DIRECTION('',(0.,0.,1.));
#1207=DIRECTION('',(0.,1.,0.));
#1208=DIRECTION('',(-1.,0.,0.));
#1209=DIRECTION('',(-1.,0.,0.));
#1210=DIRECTION('',(1.,0.,0.));
#1211=DIRECTION('',(0.,-1.,0.));
#1212=DIRECTION('',(1.,0.,0.));
#1213=DIRECTION('',(1.,0.,0.));
#1214=DIRECTION('',(0.,0.,1.));
#1215=DIRECTION('',(1.,0.,0.));
#1216=DIRECTION('',(0.,0.,1.));
#1217=DIRECTION('',(-1.,0.,0.));
#1218=DIRECTION('',(0.,-1.,0.));
#1219=DIRECTION('',(0.,-1.,0.));
#1220=DIRECTION('',(0.,1.,0.));
#1221=DIRECTION('',(0.,0.,1.));
#1222=DIRECTION('',(0.,1.,0.));
#1223=DIRECTION('',(-1.,0.,0.));
#1224=DIRECTION('',(-1.,0.,0.));
#1225=DIRECTION('',(1.,0.,0.));
#1226=DIRECTION('',(0.,0.,1.));
#1227=DIRECTION('',(1.,0.,0.));
#1228=DIRECTION('',(0.,1.,0.));
#1229=DIRECTION('',(0.,1.,0.));
#1230=DIRECTION('',(0.,1.,0.));
#1231=DIRECTION('',(0.,0.,1.));
#1232=DIRECTION('',(0.,-1.,0.));
#1233=DIRECTION('',(1.,0.,0.));
#1234=DIRECTION('',(1.,0.,0.));
#1235=DIRECTION('',(1.,0.,0.));
#1236=DIRECTION('',(0.,0.,1.));
#1237=DIRECTION('',(-1.,0.,0.));
#1238=DIRECTION('',(0.,-1.,0.));
#1239=DIRECTION('',(0.,-1.,0.));
#1240=DIRECTION('',(0.,1.,0.));
#1241=DIRECTION('',(0.,0.,1.));
#1242=DIRECTION('',(1.,0.,0.));
#1243=DIRECTION('',(0.,0.,1.));
#1244=DIRECTION('',(1.,0.,0.));
#1245=DIRECTION('',(0.,0.,1.));
#1246=DIRECTION('',(1.,0.,0.));
#1247=DIRECTION('',(0.,-1.,0.));
#1248=DIRECTION('',(0.421180704099415,0.,0.906976744186047));
#1249=DIRECTION('',(0.,-1.,0.));
#1250=DIRECTION('',(0.,1.,0.));
#1251=DIRECTION('',(-1.,-6.30629380644792E-17,0.));
#1252=DIRECTION('',(2.65608926565751E-17,-0.421180704099415,0.906976744186047));
#1253=DIRECTION('',(-1.,-6.30629380644792E-17,0.));
#1254=DIRECTION('',(6.30629380644792E-17,-1.,0.));
#1255=DIRECTION('',(-1.,-6.30629380644792E-17,0.));
#1256=DIRECTION('',(1.,0.,0.));
#1257=DIRECTION('',(-1.,-6.30629380644792E-17,0.));
#1258=DIRECTION('',(-1.,-6.30629380644792E-17,0.));
#1259=DIRECTION('',(6.30629380644792E-17,-1.,0.));
#1260=DIRECTION('',(-1.,-6.30629380644792E-17,0.));
#1261=DIRECTION('',(0.,1.,0.));
#1262=DIRECTION('',(-0.421180704099415,0.,0.906976744186047));
#1263=DIRECTION('',(0.,1.,0.));
#1264=DIRECTION('',(0.,1.,0.));
#1265=DIRECTION('',(1.,6.30629380644792E-17,0.));
#1266=DIRECTION('',(-2.65608926565751E-17,0.421180704099415,0.906976744186047));
#1267=DIRECTION('',(1.,6.30629380644792E-17,0.));
#1268=DIRECTION('',(-6.30629380644792E-17,1.,0.));
#1269=DIRECTION('',(1.,6.30629380644792E-17,0.));
#1270=DIRECTION('',(1.,0.,0.));
#1271=DIRECTION('',(1.,6.30629380644792E-17,0.));
#1272=DIRECTION('',(1.,6.30629380644792E-17,0.));
#1273=DIRECTION('',(-6.30629380644792E-17,1.,0.));
#1274=DIRECTION('',(1.,6.30629380644792E-17,0.));
#1275=DIRECTION('',(0.,0.,1.));
#1276=DIRECTION('',(1.,0.,0.));
#1277=DIRECTION('',(0.,1.,0.));
#1278=DIRECTION('',(-1.,0.,0.));
#1279=DIRECTION('',(0.,-1.,0.));
#1280=DIRECTION('',(0.,0.,1.));
#1281=DIRECTION('',(0.,-1.,0.));
#1282=DIRECTION('',(0.,0.,1.));
#1283=DIRECTION('',(0.,1.,0.));
#1284=DIRECTION('',(-1.,0.,0.));
#1285=DIRECTION('',(-1.,0.,0.));
#1286=DIRECTION('',(0.,0.,1.));
#1287=DIRECTION('',(0.,-1.,0.));
#1288=DIRECTION('',(1.,0.,0.));
#1289=DIRECTION('',(0.,0.,1.));
#1290=DIRECTION('',(1.,0.,0.));
#1291=DIRECTION('',(1.,0.,0.));
#1292=DIRECTION('',(0.,1.,0.));
#1293=DIRECTION('',(0.,1.,0.));
#1294=DIRECTION('',(0.,0.,1.));
#1295=DIRECTION('',(0.,1.,0.));
#1296=DIRECTION('',(0.,1.,0.));
#1297=DIRECTION('',(-1.,0.,0.));
#1298=DIRECTION('',(-1.,0.,0.));
#1299=DIRECTION('',(1.,0.,0.));
#1300=DIRECTION('',(0.,0.,1.));
#1301=DIRECTION('',(1.,0.,0.));
#1302=DIRECTION('',(0.,1.,0.));
#1303=DIRECTION('',(0.,1.,0.));
#1304=DIRECTION('',(0.,1.,0.));
#1305=DIRECTION('',(0.,0.,1.));
#1306=DIRECTION('',(1.,0.,0.));
#1307=DIRECTION('',(0.,0.,1.));
#1308=DIRECTION('',(1.,0.,0.));
#1309=DIRECTION('',(0.,0.,1.));
#1310=DIRECTION('',(1.,0.,0.));
#1311=DIRECTION('',(-1.,0.,0.));
#1312=DIRECTION('',(0.,-1.,0.));
#1313=DIRECTION('',(0.,1.,0.));
#1314=DIRECTION('',(0.,0.,1.));
#1315=DIRECTION('',(0.,1.,0.));
#1316=DIRECTION('',(0.,0.,1.));
#1317=DIRECTION('',(0.,1.,0.));
#1318=DIRECTION('',(-1.,0.,0.));
#1319=DIRECTION('',(-1.,0.,0.));
#1320=DIRECTION('',(1.,0.,0.));
#1321=DIRECTION('',(0.,0.,1.));
#1322=DIRECTION('',(1.,0.,0.));
#1323=DIRECTION('',(0.,1.,0.));
#1324=DIRECTION('',(0.,1.,0.));
#1325=DIRECTION('',(0.,1.,0.));
#1326=DIRECTION('',(0.,0.,1.));
#1327=DIRECTION('',(0.,-1.,0.));
#1328=DIRECTION('',(1.,0.,0.));
#1329=DIRECTION('',(1.,0.,0.));
#1330=DIRECTION('',(1.,0.,0.));
#1331=DIRECTION('',(0.,0.,1.));
#1332=DIRECTION('',(1.,0.,0.));
#1333=DIRECTION('',(0.,0.,1.));
#1334=DIRECTION('',(1.,0.,0.));
#1335=DIRECTION('',(0.,0.,1.));
#1336=DIRECTION('',(1.,0.,0.));
#1337=DIRECTION('',(0.,1.,0.));
#1338=DIRECTION('',(-1.,0.,0.));
#1339=DIRECTION('',(-1.,0.,0.));
#1340=DIRECTION('',(0.,0.,1.));
#1341=DIRECTION('',(1.,0.,0.));
#1342=DIRECTION('',(0.,0.,1.));
#1343=DIRECTION('',(1.,0.,0.));
#1344=DIRECTION('',(0.,1.,0.));
#1345=DIRECTION('',(0.,1.,0.));
#1346=DIRECTION('',(0.,1.,0.));
#1347=DIRECTION('',(0.,0.,1.));
#1348=DIRECTION('',(0.,-1.,0.));
#1349=DIRECTION('',(1.,0.,0.));
#1350=DIRECTION('',(1.,0.,0.));
#1351=DIRECTION('',(1.,0.,0.));
#1352=DIRECTION('',(0.,0.,1.));
#1353=DIRECTION('',(-1.,0.,0.));
#1354=DIRECTION('',(0.,-1.,0.));
#1355=DIRECTION('',(0.,-1.,0.));
#1356=DIRECTION('',(0.,1.,0.));
#1357=DIRECTION('',(0.,0.,1.));
#1358=DIRECTION('',(1.,0.,0.));
#1359=DIRECTION('',(0.,0.,1.));
#1360=DIRECTION('',(1.,0.,0.));
#1361=CARTESIAN_POINT('',(0.,0.,0.));
#1362=CARTESIAN_POINT('',(-27.6000000000022,16.350000000001,0.));
#1363=CARTESIAN_POINT('',(-27.6000000000022,16.350000000001,0.5));
#1364=CARTESIAN_POINT('',(-28.5000000000022,16.350000000001,0.5));
#1365=CARTESIAN_POINT('',(-28.5000000000022,16.350000000001,0.));
#1366=CARTESIAN_POINT('',(-28.5000000000022,16.350000000001,0.));
#1367=CARTESIAN_POINT('',(-27.6000000000022,16.350000000001,0.));
#1368=CARTESIAN_POINT('',(-27.6000000000022,16.350000000001,0.5));
#1369=CARTESIAN_POINT('',(-27.6000000000022,16.350000000001,0.));
#1370=CARTESIAN_POINT('',(0.,0.,0.));
#1371=CARTESIAN_POINT('',(-27.6000000000022,16.350000000001,0.));
#1372=CARTESIAN_POINT('',(-27.6000000000022,16.350000000001,0.5));
#1373=CARTESIAN_POINT('',(-28.5000000000022,16.350000000001,0.5));
#1374=CARTESIAN_POINT('',(-28.5000000000022,16.350000000001,0.));
#1375=CARTESIAN_POINT('',(-28.5000000000022,16.350000000001,0.));
#1376=CARTESIAN_POINT('',(-27.6000000000022,16.350000000001,0.));
#1377=CARTESIAN_POINT('',(-29.9000000000022,13.600000000001,0.));
#1378=CARTESIAN_POINT('',(-29.9000000000022,13.600000000001,0.));
#1379=CARTESIAN_POINT('',(-29.9000000000022,13.600000000001,0.));
#1380=CARTESIAN_POINT('',(-25.9000000000022,13.600000000001,0.));
#1381=CARTESIAN_POINT('',(-25.9000000000022,13.600000000001,0.));
#1382=CARTESIAN_POINT('',(-25.9000000000022,13.600000000001,0.5));
#1383=CARTESIAN_POINT('',(-27.9000000000022,13.600000000001,0.5));
#1384=CARTESIAN_POINT('',(-29.9000000000022,13.600000000001,0.5));
#1385=CARTESIAN_POINT('',(-29.9000000000022,13.600000000001,0.));
#1386=CARTESIAN_POINT('',(-29.9000000000022,19.100000000001,0.));
#1387=CARTESIAN_POINT('',(-29.9000000000022,19.100000000001,0.));
#1388=CARTESIAN_POINT('',(-29.9000000000022,19.100000000001,0.));
#1389=CARTESIAN_POINT('',(-29.9000000000022,16.350000000001,0.5));
#1390=CARTESIAN_POINT('',(-29.9000000000022,19.100000000001,0.5));
#1391=CARTESIAN_POINT('',(-29.9000000000022,19.100000000001,0.));
#1392=CARTESIAN_POINT('',(-25.9000000000022,19.100000000001,0.));
#1393=CARTESIAN_POINT('',(-25.9000000000022,19.100000000001,0.));
#1394=CARTESIAN_POINT('',(-25.9000000000022,19.100000000001,0.));
#1395=CARTESIAN_POINT('',(-27.9000000000022,19.100000000001,0.5));
#1396=CARTESIAN_POINT('',(-25.9000000000022,19.100000000001,0.5));
#1397=CARTESIAN_POINT('',(-25.9000000000022,19.100000000001,0.));
#1398=CARTESIAN_POINT('',(-25.9000000000022,13.600000000001,0.));
#1399=CARTESIAN_POINT('',(-25.9000000000022,13.600000000001,0.));
#1400=CARTESIAN_POINT('',(-25.9000000000022,16.350000000001,0.5));
#1401=CARTESIAN_POINT('',(-27.9000000000022,16.350000000001,0.5));
#1402=CARTESIAN_POINT('',(-27.9000000000022,16.350000000001,0.));
#1403=CARTESIAN_POINT('',(0.,0.,0.));
#1404=CARTESIAN_POINT('',(-35.2100000000022,-22.899999999999,0.));
#1405=CARTESIAN_POINT('',(-35.2100000000022,-22.899999999999,0.));
#1406=CARTESIAN_POINT('',(-35.2100000000022,-22.899999999999,0.));
#1407=CARTESIAN_POINT('',(-35.2100000000022,22.900000000001,0.));
#1408=CARTESIAN_POINT('',(-35.2100000000022,22.900000000001,0.));
#1409=CARTESIAN_POINT('',(-35.2100000000022,22.900000000001,-0.05));
#1410=CARTESIAN_POINT('',(-35.2100000000022,1.02140518265514E-12,-0.05));
#1411=CARTESIAN_POINT('',(-35.2100000000022,-22.899999999999,-0.05));
#1412=CARTESIAN_POINT('',(-35.2100000000022,-22.899999999999,0.));
#1413=CARTESIAN_POINT('',(35.2099999999978,-22.899999999999,0.));
#1414=CARTESIAN_POINT('',(35.2099999999978,-22.899999999999,0.));
#1415=CARTESIAN_POINT('',(35.2099999999978,-22.899999999999,0.));
#1416=CARTESIAN_POINT('',(-2.1538326677728E-12,-22.899999999999,-0.05));
#1417=CARTESIAN_POINT('',(35.2099999999978,-22.899999999999,-0.05));
#1418=CARTESIAN_POINT('',(35.2099999999978,-22.899999999999,0.));
#1419=CARTESIAN_POINT('',(35.2099999999978,22.900000000001,0.));
#1420=CARTESIAN_POINT('',(35.2099999999978,22.900000000001,0.));
#1421=CARTESIAN_POINT('',(35.2099999999978,22.900000000001,0.));
#1422=CARTESIAN_POINT('',(35.2099999999978,1.02140518265514E-12,-0.05));
#1423=CARTESIAN_POINT('',(35.2099999999978,22.900000000001,-0.05));
#1424=CARTESIAN_POINT('',(35.2099999999978,22.900000000001,0.));
#1425=CARTESIAN_POINT('',(-35.2100000000022,22.900000000001,0.));
#1426=CARTESIAN_POINT('',(-35.2100000000022,22.900000000001,0.));
#1427=CARTESIAN_POINT('',(-2.1538326677728E-12,22.900000000001,-0.05));
#1428=CARTESIAN_POINT('',(-2.1538326677728E-12,1.02140518265514E-12,0.));
#1429=CARTESIAN_POINT('',(-2.1538326677728E-12,1.02140518265514E-12,-0.05));
#1430=CARTESIAN_POINT('',(0.,0.,0.));
#1431=CARTESIAN_POINT('',(-25.9000000000022,-19.089999999999,0.));
#1432=CARTESIAN_POINT('',(-25.9000000000022,-19.089999999999,0.));
#1433=CARTESIAN_POINT('',(-25.9000000000022,-19.089999999999,0.));
#1434=CARTESIAN_POINT('',(-25.9000000000022,13.600000000001,0.));
#1435=CARTESIAN_POINT('',(-25.9000000000022,13.600000000001,0.));
#1436=CARTESIAN_POINT('',(-25.9000000000022,13.600000000001,0.5));
#1437=CARTESIAN_POINT('',(-25.9000000000022,0.00500000000102752,0.5));
#1438=CARTESIAN_POINT('',(-25.9000000000022,-19.089999999999,0.5));
#1439=CARTESIAN_POINT('',(-25.9000000000022,-19.089999999999,0.));
#1440=CARTESIAN_POINT('',(31.3899999999978,-19.089999999999,0.));
#1441=CARTESIAN_POINT('',(31.3899999999978,-19.089999999999,0.));
#1442=CARTESIAN_POINT('',(31.3899999999978,-19.089999999999,0.));
#1443=CARTESIAN_POINT('',(0.744999999997846,-19.089999999999,0.5));
#1444=CARTESIAN_POINT('',(31.3899999999978,-19.089999999999,0.5));
#1445=CARTESIAN_POINT('',(31.3899999999978,-19.089999999999,0.));
#1446=CARTESIAN_POINT('',(31.3899999999978,19.100000000001,0.));
#1447=CARTESIAN_POINT('',(31.3899999999978,19.100000000001,0.));
#1448=CARTESIAN_POINT('',(31.3899999999978,19.100000000001,0.));
#1449=CARTESIAN_POINT('',(31.3899999999978,0.00500000000102752,0.5));
#1450=CARTESIAN_POINT('',(31.3899999999978,19.100000000001,0.5));
#1451=CARTESIAN_POINT('',(31.3899999999978,19.100000000001,0.));
#1452=CARTESIAN_POINT('',(-29.9000000000021,19.100000000001,0.));
#1453=CARTESIAN_POINT('',(-29.9000000000021,19.100000000001,0.));
#1454=CARTESIAN_POINT('',(-29.9000000000022,19.100000000001,0.));
#1455=CARTESIAN_POINT('',(0.744999999997846,19.100000000001,0.5));
#1456=CARTESIAN_POINT('',(-29.9000000000022,19.100000000001,0.5));
#1457=CARTESIAN_POINT('',(-29.9000000000022,19.100000000001,0.));
#1458=CARTESIAN_POINT('',(-29.9000000000022,13.600000000001,0.));
#1459=CARTESIAN_POINT('',(-29.9000000000022,13.600000000001,0.));
#1460=CARTESIAN_POINT('',(-29.9000000000022,13.600000000001,0.));
#1461=CARTESIAN_POINT('',(-29.9000000000022,0.00500000000102752,0.5));
#1462=CARTESIAN_POINT('',(-29.9000000000022,13.600000000001,0.5));
#1463=CARTESIAN_POINT('',(-29.9000000000022,13.600000000001,0.));
#1464=CARTESIAN_POINT('',(-25.9000000000022,13.600000000001,0.));
#1465=CARTESIAN_POINT('',(-25.9000000000022,13.600000000001,0.));
#1466=CARTESIAN_POINT('',(0.744999999997846,13.600000000001,0.5));
#1467=CARTESIAN_POINT('',(-31.9000000000022,11.600000000001,0.));
#1468=CARTESIAN_POINT('',(-31.9000000000022,11.600000000001,0.));
#1469=CARTESIAN_POINT('',(-31.9000000000022,11.600000000001,0.));
#1470=CARTESIAN_POINT('',(-27.9000000000022,11.600000000001,0.));
#1471=CARTESIAN_POINT('',(-27.9000000000022,11.600000000001,0.));
#1472=CARTESIAN_POINT('',(-27.9000000000022,11.600000000001,0.5));
#1473=CARTESIAN_POINT('',(0.744999999997846,11.600000000001,0.5));
#1474=CARTESIAN_POINT('',(-31.9000000000022,11.600000000001,0.5));
#1475=CARTESIAN_POINT('',(-31.9000000000022,11.600000000001,0.));
#1476=CARTESIAN_POINT('',(-31.9000000000022,21.100000000001,0.));
#1477=CARTESIAN_POINT('',(-31.9000000000022,21.100000000001,0.));
#1478=CARTESIAN_POINT('',(-31.9000000000022,21.100000000001,0.));
#1479=CARTESIAN_POINT('',(-31.9000000000022,0.00500000000102752,0.5));
#1480=CARTESIAN_POINT('',(-31.9000000000022,21.100000000001,0.5));
#1481=CARTESIAN_POINT('',(-31.9000000000022,21.100000000001,0.));
#1482=CARTESIAN_POINT('',(33.3899999999978,21.100000000001,0.));
#1483=CARTESIAN_POINT('',(33.3899999999978,21.100000000001,0.));
#1484=CARTESIAN_POINT('',(33.3899999999978,21.100000000001,0.));
#1485=CARTESIAN_POINT('',(0.744999999997846,21.100000000001,0.5));
#1486=CARTESIAN_POINT('',(33.3899999999978,21.100000000001,0.5));
#1487=CARTESIAN_POINT('',(33.3899999999978,21.100000000001,0.));
#1488=CARTESIAN_POINT('',(33.3899999999978,-21.089999999999,0.));
#1489=CARTESIAN_POINT('',(33.3899999999978,-21.089999999999,0.));
#1490=CARTESIAN_POINT('',(33.3899999999978,-21.089999999999,0.));
#1491=CARTESIAN_POINT('',(33.3899999999978,0.00500000000102752,0.5));
#1492=CARTESIAN_POINT('',(33.3899999999978,-21.089999999999,0.5));
#1493=CARTESIAN_POINT('',(33.3899999999978,-21.089999999999,0.));
#1494=CARTESIAN_POINT('',(-27.9000000000022,-21.089999999999,0.));
#1495=CARTESIAN_POINT('',(-27.9000000000022,-21.089999999999,0.));
#1496=CARTESIAN_POINT('',(-27.9000000000022,-21.089999999999,0.));
#1497=CARTESIAN_POINT('',(0.744999999997846,-21.089999999999,0.5));
#1498=CARTESIAN_POINT('',(-27.9000000000022,-21.089999999999,0.5));
#1499=CARTESIAN_POINT('',(-27.9000000000022,-21.089999999999,0.));
#1500=CARTESIAN_POINT('',(-27.9000000000022,11.600000000001,0.));
#1501=CARTESIAN_POINT('',(-27.9000000000022,11.600000000001,0.));
#1502=CARTESIAN_POINT('',(-27.9000000000022,0.00500000000102752,0.5));
#1503=CARTESIAN_POINT('',(0.744999999997846,0.00500000000102752,0.5));
#1504=CARTESIAN_POINT('',(0.744999999997846,0.00500000000102752,0.));
#1505=CARTESIAN_POINT('',(0.,0.,0.));
#1506=CARTESIAN_POINT('',(33.3989229723704,22.900000000001,-3.9));
#1507=CARTESIAN_POINT('',(33.3989229723704,22.900000000001,0.4));
#1508=CARTESIAN_POINT('',(33.3989229723704,21.0889229723735,0.4));
#1509=CARTESIAN_POINT('',(33.3989229723704,-21.0889229723715,0.4));
#1510=CARTESIAN_POINT('',(33.3989229723704,-21.0889229723715,0.400000000000002));
#1511=CARTESIAN_POINT('',(34.0220599508072,-21.7120599508083,0.400000000000002));
#1512=CARTESIAN_POINT('',(34.6448292521134,-22.3348292521142,0.262453271328379));
#1513=CARTESIAN_POINT('',(35.2099999999979,-22.899999999999,1.73472347597681E-15));
#1514=CARTESIAN_POINT('',(35.2099999999978,-22.899999999999,0.));
#1515=CARTESIAN_POINT('',(35.2099999999978,1.02140518265514E-12,0.));
#1516=CARTESIAN_POINT('',(35.2099999999978,22.900000000001,2.16840434497101E-16));
#1517=CARTESIAN_POINT('',(33.3989229723704,21.0889229723735,0.400000000000002));
#1518=CARTESIAN_POINT('',(34.0220599508073,21.7120599508103,0.400000000000004));
#1519=CARTESIAN_POINT('',(34.6448292521134,22.3348292521165,0.262453271328379));
#1520=CARTESIAN_POINT('',(35.2099999999978,22.900000000001,1.73472347597681E-15));
#1521=CARTESIAN_POINT('',(35.2099999999978,-21.0889229723715,-3.9));
#1522=CARTESIAN_POINT('',(-27.9000000000022,-21.0889229723715,-3.9));
#1523=CARTESIAN_POINT('',(-27.9000000000022,-21.0899999999878,0.399999865117616));
#1524=CARTESIAN_POINT('',(-27.9000000000022,-21.0889229723659,0.4));
#1525=CARTESIAN_POINT('',(35.2099999999978,-21.0889229723603,0.4));
#1526=CARTESIAN_POINT('',(-33.3989229723747,-21.0889229723659,0.4));
#1527=CARTESIAN_POINT('',(-33.3989229723747,-21.0889229723715,0.400000000000002));
#1528=CARTESIAN_POINT('',(-34.0220599508115,-21.7120599508083,0.400000000000003));
#1529=CARTESIAN_POINT('',(-34.6448292521178,-22.3348292521145,0.262453271328384));
#1530=CARTESIAN_POINT('',(-35.2100000000022,-22.899999999999,1.73472347597681E-15));
#1531=CARTESIAN_POINT('',(-35.2100000000022,-22.899999999999,0.));
#1532=CARTESIAN_POINT('',(-2.1538326677728E-12,-22.899999999999,0.));
#1533=CARTESIAN_POINT('',(35.2099999999978,-21.0889229723715,0.4));
#1534=CARTESIAN_POINT('',(33.3899999999978,-21.0889229723715,0.4));
#1535=CARTESIAN_POINT('',(33.3899999999978,-21.0889229723715,-3.9));
#1536=CARTESIAN_POINT('',(33.3899999999978,-21.0899999999878,0.399999865117616));
#1537=CARTESIAN_POINT('',(35.2099999999978,-21.0899999999765,0.39999986511762));
#1538=CARTESIAN_POINT('',(-33.3989229723747,-22.899999999999,-3.9));
#1539=CARTESIAN_POINT('',(-33.3989229723747,-22.899999999999,0.4));
#1540=CARTESIAN_POINT('',(-33.3989229723747,21.0889229723735,0.4));
#1541=CARTESIAN_POINT('',(-33.3989229723747,21.0889229723735,0.400000000000002));
#1542=CARTESIAN_POINT('',(-34.0220599508115,21.7120599508103,0.400000000000001));
#1543=CARTESIAN_POINT('',(-34.6448292521177,22.3348292521166,0.262453271328384));
#1544=CARTESIAN_POINT('',(-35.2100000000022,22.900000000001,1.73472347597681E-15));
#1545=CARTESIAN_POINT('',(-35.2100000000022,22.900000000001,0.));
#1546=CARTESIAN_POINT('',(-35.2100000000022,1.02140518265514E-12,0.));
#1547=CARTESIAN_POINT('',(-35.2100000000022,21.0889229723735,-3.9));
#1548=CARTESIAN_POINT('',(33.3899999999979,21.0889229723735,-3.9));
#1549=CARTESIAN_POINT('',(33.3899999999979,21.100000000001,0.399985732471557));
#1550=CARTESIAN_POINT('',(33.3899999999979,21.0889229723735,0.4));
#1551=CARTESIAN_POINT('',(-35.2100000000022,21.0889229723735,0.4));
#1552=CARTESIAN_POINT('',(-2.1538326677728E-12,22.900000000001,0.));
#1553=CARTESIAN_POINT('',(-35.2100000000022,21.0889229723735,0.4));
#1554=CARTESIAN_POINT('',(-31.9000000000022,21.0889229723735,0.4));
#1555=CARTESIAN_POINT('',(-31.9000000000022,21.0889229723735,-3.9));
#1556=CARTESIAN_POINT('',(-31.9000000000022,21.100000000001,0.399985732471556));
#1557=CARTESIAN_POINT('',(-35.2100000000022,21.100000000001,0.399985732471557));
#1558=CARTESIAN_POINT('',(-2.1538326677728E-12,1.02140518265514E-12,0.4));
#1559=CARTESIAN_POINT('',(33.3899999999978,1.02140518265514E-12,0.4));
#1560=CARTESIAN_POINT('',(33.3899999999978,21.100000000001,0.));
#1561=CARTESIAN_POINT('',(33.3899999999978,21.100000000001,0.));
#1562=CARTESIAN_POINT('',(33.3899999999978,21.100000000001,0.));
#1563=CARTESIAN_POINT('',(33.3899999999978,21.100000000001,0.));
#1564=CARTESIAN_POINT('',(33.3899999999978,-21.089999999999,0.));
#1565=CARTESIAN_POINT('',(33.3899999999978,-21.089999999999,0.));
#1566=CARTESIAN_POINT('',(33.3899999999978,-21.089999999999,0.));
#1567=CARTESIAN_POINT('',(33.3899999999978,-21.089999999999,0.));
#1568=CARTESIAN_POINT('',(-27.9000000000022,-21.089999999999,0.));
#1569=CARTESIAN_POINT('',(-27.9000000000022,-21.089999999999,0.));
#1570=CARTESIAN_POINT('',(-31.9000000000021,21.100000000001,0.));
#1571=CARTESIAN_POINT('',(-31.9000000000022,21.100000000001,0.));
#1572=CARTESIAN_POINT('',(-31.9000000000022,21.100000000001,0.));
#1573=CARTESIAN_POINT('',(-31.9000000000021,21.100000000001,0.));
#1574=CARTESIAN_POINT('',(-31.9000000000022,11.600000000001,0.));
#1575=CARTESIAN_POINT('',(-31.9000000000022,1.02140518265514E-12,0.4));
#1576=CARTESIAN_POINT('',(-31.9000000000022,11.600000000001,0.4));
#1577=CARTESIAN_POINT('',(-31.9000000000022,11.600000000001,0.));
#1578=CARTESIAN_POINT('',(-31.9000000000022,11.600000000001,0.));
#1579=CARTESIAN_POINT('',(-31.9000000000022,11.600000000001,0.));
#1580=CARTESIAN_POINT('',(-27.9000000000022,11.600000000001,0.));
#1581=CARTESIAN_POINT('',(-27.9000000000022,11.600000000001,0.));
#1582=CARTESIAN_POINT('',(-27.9000000000022,11.600000000001,0.));
#1583=CARTESIAN_POINT('',(-2.1538326677728E-12,11.600000000001,0.4));
#1584=CARTESIAN_POINT('',(-27.9000000000022,11.600000000001,0.4));
#1585=CARTESIAN_POINT('',(-27.9000000000022,11.600000000001,0.));
#1586=CARTESIAN_POINT('',(-27.9000000000022,-21.089999999999,0.));
#1587=CARTESIAN_POINT('',(-27.9000000000022,-21.089999999999,0.));
#1588=CARTESIAN_POINT('',(-27.9000000000022,1.02140518265514E-12,0.4));
#1589=CARTESIAN_POINT('',(-2.1538326677728E-12,1.02140518265514E-12,0.4));
#1590=CARTESIAN_POINT('',(-2.1538326677728E-12,1.02140518265514E-12,0.));
#1591=CARTESIAN_POINT('',(0.,0.,0.));
#1592=CARTESIAN_POINT('',(-25.9000000000022,19.100000000001,0.));
#1593=CARTESIAN_POINT('',(-25.9000000000022,0.00500000000102752,0.));
#1594=CARTESIAN_POINT('',(-25.9000000000022,-19.089999999999,0.));
#1595=CARTESIAN_POINT('',(-25.9000000000022,19.100000000001,0.));
#1596=CARTESIAN_POINT('',(-25.9000000000022,-19.089999999999,0.));
#1597=CARTESIAN_POINT('',(-25.9000000000022,-19.089999999999,0.5));
#1598=CARTESIAN_POINT('',(-25.9000000000022,0.00500000000102752,0.5));
#1599=CARTESIAN_POINT('',(-25.9000000000022,19.100000000001,0.5));
#1600=CARTESIAN_POINT('',(-25.9000000000022,19.100000000001,0.));
#1601=CARTESIAN_POINT('',(31.3899999999978,19.100000000001,0.));
#1602=CARTESIAN_POINT('',(31.3899999999978,19.100000000001,0.));
#1603=CARTESIAN_POINT('',(31.3899999999978,19.100000000001,0.));
#1604=CARTESIAN_POINT('',(2.74499999999785,19.100000000001,0.5));
#1605=CARTESIAN_POINT('',(31.3899999999978,19.100000000001,0.5));
#1606=CARTESIAN_POINT('',(31.3899999999978,19.100000000001,0.));
#1607=CARTESIAN_POINT('',(31.3899999999978,-19.089999999999,0.));
#1608=CARTESIAN_POINT('',(31.3899999999978,-19.089999999999,0.));
#1609=CARTESIAN_POINT('',(31.3899999999978,-19.089999999999,0.));
#1610=CARTESIAN_POINT('',(31.3899999999978,0.00500000000102752,0.5));
#1611=CARTESIAN_POINT('',(31.3899999999978,-19.089999999999,0.5));
#1612=CARTESIAN_POINT('',(31.3899999999978,-19.089999999999,0.));
#1613=CARTESIAN_POINT('',(-25.9000000000022,-19.089999999999,0.));
#1614=CARTESIAN_POINT('',(-25.9000000000022,-19.089999999999,0.));
#1615=CARTESIAN_POINT('',(2.74499999999785,-19.089999999999,0.5));
#1616=CARTESIAN_POINT('',(2.74499999999785,0.00500000000102752,0.5));
#1617=CARTESIAN_POINT('',(2.74499999999785,0.00500000000102752,0.));
#1618=CARTESIAN_POINT('',(0.,0.,0.));
#1619=CARTESIAN_POINT('',(-32.21,4.83999999999898,0.));
#1620=CARTESIAN_POINT('',(-32.21,4.83999999999898,0.));
#1621=CARTESIAN_POINT('',(-32.21,4.83999999999898,0.));
#1622=CARTESIAN_POINT('',(-33.21,4.83999999999898,0.));
#1623=CARTESIAN_POINT('',(-33.21,4.83999999999898,0.));
#1624=CARTESIAN_POINT('',(-33.21,4.83999999999898,0.41));
#1625=CARTESIAN_POINT('',(-32.71,4.83999999999898,0.41));
#1626=CARTESIAN_POINT('',(-32.21,4.83999999999898,0.41));
#1627=CARTESIAN_POINT('',(-32.21,4.83999999999898,0.));
#1628=CARTESIAN_POINT('',(-32.21,-4.66000000000102,0.));
#1629=CARTESIAN_POINT('',(-32.21,-4.66000000000102,0.));
#1630=CARTESIAN_POINT('',(-32.21,-4.66000000000102,0.));
#1631=CARTESIAN_POINT('',(-32.21,0.0899999999989787,0.41));
#1632=CARTESIAN_POINT('',(-32.21,-4.66000000000102,0.41));
#1633=CARTESIAN_POINT('',(-32.21,-4.66000000000102,0.));
#1634=CARTESIAN_POINT('',(-33.21,-4.66000000000102,0.));
#1635=CARTESIAN_POINT('',(-33.21,-4.66000000000102,0.));
#1636=CARTESIAN_POINT('',(-33.21,-4.66000000000102,0.));
#1637=CARTESIAN_POINT('',(-32.71,-4.66000000000102,0.41));
#1638=CARTESIAN_POINT('',(-33.21,-4.66000000000102,0.41));
#1639=CARTESIAN_POINT('',(-33.21,-4.66000000000102,0.));
#1640=CARTESIAN_POINT('',(-33.21,4.83999999999898,0.));
#1641=CARTESIAN_POINT('',(-33.21,4.83999999999898,0.));
#1642=CARTESIAN_POINT('',(-33.21,0.0899999999989787,0.41));
#1643=CARTESIAN_POINT('',(-32.71,0.0899999999989787,0.41));
#1644=CARTESIAN_POINT('',(-32.71,0.0899999999989787,0.));
#1645=MECHANICAL_DESIGN_GEOMETRIC_PRESENTATION_REPRESENTATION('',(#963),
#1652);
#1646=MECHANICAL_DESIGN_GEOMETRIC_PRESENTATION_REPRESENTATION('',(#964),
#1653);
#1647=MECHANICAL_DESIGN_GEOMETRIC_PRESENTATION_REPRESENTATION('',(#965),
#1654);
#1648=MECHANICAL_DESIGN_GEOMETRIC_PRESENTATION_REPRESENTATION('',(#966),
#1655);
#1649=MECHANICAL_DESIGN_GEOMETRIC_PRESENTATION_REPRESENTATION('',(#967),
#1656);
#1650=MECHANICAL_DESIGN_GEOMETRIC_PRESENTATION_REPRESENTATION('',(#968),
#1657);
#1651=MECHANICAL_DESIGN_GEOMETRIC_PRESENTATION_REPRESENTATION('',(#969),
#1658);
#1652=(
GEOMETRIC_REPRESENTATION_CONTEXT(3)
GLOBAL_UNCERTAINTY_ASSIGNED_CONTEXT((#1659))
GLOBAL_UNIT_ASSIGNED_CONTEXT((#1680,#1673,#1666))
REPRESENTATION_CONTEXT('Body3','TOP_LEVEL_ASSEMBLY_PART')
);
#1653=(
GEOMETRIC_REPRESENTATION_CONTEXT(3)
GLOBAL_UNCERTAINTY_ASSIGNED_CONTEXT((#1660))
GLOBAL_UNIT_ASSIGNED_CONTEXT((#1681,#1674,#1667))
REPRESENTATION_CONTEXT('Body4','TOP_LEVEL_ASSEMBLY_PART')
);
#1654=(
GEOMETRIC_REPRESENTATION_CONTEXT(3)
GLOBAL_UNCERTAINTY_ASSIGNED_CONTEXT((#1661))
GLOBAL_UNIT_ASSIGNED_CONTEXT((#1682,#1675,#1668))
REPRESENTATION_CONTEXT('Body1','TOP_LEVEL_ASSEMBLY_PART')
);
#1655=(
GEOMETRIC_REPRESENTATION_CONTEXT(3)
GLOBAL_UNCERTAINTY_ASSIGNED_CONTEXT((#1662))
GLOBAL_UNIT_ASSIGNED_CONTEXT((#1683,#1676,#1669))
REPRESENTATION_CONTEXT('Body5','TOP_LEVEL_ASSEMBLY_PART')
);
#1656=(
GEOMETRIC_REPRESENTATION_CONTEXT(3)
GLOBAL_UNCERTAINTY_ASSIGNED_CONTEXT((#1663))
GLOBAL_UNIT_ASSIGNED_CONTEXT((#1684,#1677,#1670))
REPRESENTATION_CONTEXT('Body33','TOP_LEVEL_ASSEMBLY_PART')
);
#1657=(
GEOMETRIC_REPRESENTATION_CONTEXT(3)
GLOBAL_UNCERTAINTY_ASSIGNED_CONTEXT((#1664))
GLOBAL_UNIT_ASSIGNED_CONTEXT((#1685,#1678,#1671))
REPRESENTATION_CONTEXT('Body2','TOP_LEVEL_ASSEMBLY_PART')
);
#1658=(
GEOMETRIC_REPRESENTATION_CONTEXT(3)
GLOBAL_UNCERTAINTY_ASSIGNED_CONTEXT((#1665))
GLOBAL_UNIT_ASSIGNED_CONTEXT((#1686,#1679,#1672))
REPRESENTATION_CONTEXT('Body32','TOP_LEVEL_ASSEMBLY_PART')
);
#1659=UNCERTAINTY_MEASURE_WITH_UNIT(LENGTH_MEASURE(1.E-5),#1680,
'DISTANCE_ACCURACY_VALUE','Maximum Tolerance applied to model');
#1660=UNCERTAINTY_MEASURE_WITH_UNIT(LENGTH_MEASURE(1.E-5),#1681,
'DISTANCE_ACCURACY_VALUE','Maximum Tolerance applied to model');
#1661=UNCERTAINTY_MEASURE_WITH_UNIT(LENGTH_MEASURE(1.E-5),#1682,
'DISTANCE_ACCURACY_VALUE','Maximum Tolerance applied to model');
#1662=UNCERTAINTY_MEASURE_WITH_UNIT(LENGTH_MEASURE(1.E-5),#1683,
'DISTANCE_ACCURACY_VALUE','Maximum Tolerance applied to model');
#1663=UNCERTAINTY_MEASURE_WITH_UNIT(LENGTH_MEASURE(1.E-5),#1684,
'DISTANCE_ACCURACY_VALUE','Maximum Tolerance applied to model');
#1664=UNCERTAINTY_MEASURE_WITH_UNIT(LENGTH_MEASURE(1.E-5),#1685,
'DISTANCE_ACCURACY_VALUE','Maximum Tolerance applied to model');
#1665=UNCERTAINTY_MEASURE_WITH_UNIT(LENGTH_MEASURE(1.E-5),#1686,
'DISTANCE_ACCURACY_VALUE','Maximum Tolerance applied to model');
#1666=(
NAMED_UNIT(*)
SI_UNIT($,.STERADIAN.)
SOLID_ANGLE_UNIT()
);
#1667=(
NAMED_UNIT(*)
SI_UNIT($,.STERADIAN.)
SOLID_ANGLE_UNIT()
);
#1668=(
NAMED_UNIT(*)
SI_UNIT($,.STERADIAN.)
SOLID_ANGLE_UNIT()
);
#1669=(
NAMED_UNIT(*)
SI_UNIT($,.STERADIAN.)
SOLID_ANGLE_UNIT()
);
#1670=(
NAMED_UNIT(*)
SI_UNIT($,.STERADIAN.)
SOLID_ANGLE_UNIT()
);
#1671=(
NAMED_UNIT(*)
SI_UNIT($,.STERADIAN.)
SOLID_ANGLE_UNIT()
);
#1672=(
NAMED_UNIT(*)
SI_UNIT($,.STERADIAN.)
SOLID_ANGLE_UNIT()
);
#1673=(
NAMED_UNIT(*)
PLANE_ANGLE_UNIT()
SI_UNIT($,.RADIAN.)
);
#1674=(
NAMED_UNIT(*)
PLANE_ANGLE_UNIT()
SI_UNIT($,.RADIAN.)
);
#1675=(
NAMED_UNIT(*)
PLANE_ANGLE_UNIT()
SI_UNIT($,.RADIAN.)
);
#1676=(
NAMED_UNIT(*)
PLANE_ANGLE_UNIT()
SI_UNIT($,.RADIAN.)
);
#1677=(
NAMED_UNIT(*)
PLANE_ANGLE_UNIT()
SI_UNIT($,.RADIAN.)
);
#1678=(
NAMED_UNIT(*)
PLANE_ANGLE_UNIT()
SI_UNIT($,.RADIAN.)
);
#1679=(
NAMED_UNIT(*)
PLANE_ANGLE_UNIT()
SI_UNIT($,.RADIAN.)
);
#1680=(
LENGTH_UNIT()
NAMED_UNIT(*)
SI_UNIT(.MILLI.,.METRE.)
);
#1681=(
LENGTH_UNIT()
NAMED_UNIT(*)
SI_UNIT(.MILLI.,.METRE.)
);
#1682=(
LENGTH_UNIT()
NAMED_UNIT(*)
SI_UNIT(.MILLI.,.METRE.)
);
#1683=(
LENGTH_UNIT()
NAMED_UNIT(*)
SI_UNIT(.MILLI.,.METRE.)
);
#1684=(
LENGTH_UNIT()
NAMED_UNIT(*)
SI_UNIT(.MILLI.,.METRE.)
);
#1685=(
LENGTH_UNIT()
NAMED_UNIT(*)
SI_UNIT(.MILLI.,.METRE.)
);
#1686=(
LENGTH_UNIT()
NAMED_UNIT(*)
SI_UNIT(.MILLI.,.METRE.)
);
#1687=PRODUCT_DEFINITION_SHAPE('','',#1694);
#1688=PRODUCT_DEFINITION_SHAPE('','',#1695);
#1689=PRODUCT_DEFINITION_SHAPE('','',#1696);
#1690=PRODUCT_DEFINITION_SHAPE('','',#1697);
#1691=PRODUCT_DEFINITION_SHAPE('','',#1698);
#1692=PRODUCT_DEFINITION_SHAPE('','',#1699);
#1693=PRODUCT_DEFINITION_SHAPE('','',#1700);
#1694=PRODUCT_DEFINITION('','',#1708,#1701);
#1695=PRODUCT_DEFINITION('','',#1709,#1702);
#1696=PRODUCT_DEFINITION('','',#1710,#1703);
#1697=PRODUCT_DEFINITION('','',#1711,#1704);
#1698=PRODUCT_DEFINITION('','',#1712,#1705);
#1699=PRODUCT_DEFINITION('','',#1713,#1706);
#1700=PRODUCT_DEFINITION('','',#1714,#1707);
#1701=PRODUCT_DEFINITION_CONTEXT('',#1750,'design');
#1702=PRODUCT_DEFINITION_CONTEXT('',#1751,'design');
#1703=PRODUCT_DEFINITION_CONTEXT('',#1752,'design');
#1704=PRODUCT_DEFINITION_CONTEXT('',#1753,'design');
#1705=PRODUCT_DEFINITION_CONTEXT('',#1754,'design');
#1706=PRODUCT_DEFINITION_CONTEXT('',#1755,'design');
#1707=PRODUCT_DEFINITION_CONTEXT('',#1756,'design');
#1708=PRODUCT_DEFINITION_FORMATION_WITH_SPECIFIED_SOURCE('','',#1722,
 .NOT_KNOWN.);
#1709=PRODUCT_DEFINITION_FORMATION_WITH_SPECIFIED_SOURCE('','',#1723,
 .NOT_KNOWN.);
#1710=PRODUCT_DEFINITION_FORMATION_WITH_SPECIFIED_SOURCE('','',#1724,
 .NOT_KNOWN.);
#1711=PRODUCT_DEFINITION_FORMATION_WITH_SPECIFIED_SOURCE('','',#1725,
 .NOT_KNOWN.);
#1712=PRODUCT_DEFINITION_FORMATION_WITH_SPECIFIED_SOURCE('','',#1726,
 .NOT_KNOWN.);
#1713=PRODUCT_DEFINITION_FORMATION_WITH_SPECIFIED_SOURCE('','',#1727,
 .NOT_KNOWN.);
#1714=PRODUCT_DEFINITION_FORMATION_WITH_SPECIFIED_SOURCE('','',#1728,
 .NOT_KNOWN.);
#1715=PRODUCT_RELATED_PRODUCT_CATEGORY('','',(#1722));
#1716=PRODUCT_RELATED_PRODUCT_CATEGORY('','',(#1723));
#1717=PRODUCT_RELATED_PRODUCT_CATEGORY('','',(#1724));
#1718=PRODUCT_RELATED_PRODUCT_CATEGORY('','',(#1725));
#1719=PRODUCT_RELATED_PRODUCT_CATEGORY('','',(#1726));
#1720=PRODUCT_RELATED_PRODUCT_CATEGORY('','',(#1727));
#1721=PRODUCT_RELATED_PRODUCT_CATEGORY('','',(#1728));
#1722=PRODUCT('Body3','Body3','Body3',(#1736));
#1723=PRODUCT('Body4','Body4','Body4',(#1737));
#1724=PRODUCT('Body1','Body1','Body1',(#1738));
#1725=PRODUCT('Body5','Body5','Body5',(#1739));
#1726=PRODUCT('Body33','Body33','Body33',(#1740));
#1727=PRODUCT('Body2','Body2','Body2',(#1741));
#1728=PRODUCT('Body32','Body32','Body32',(#1742));
#1729=PRODUCT_CATEGORY('','');
#1730=PRODUCT_CATEGORY('','');
#1731=PRODUCT_CATEGORY('','');
#1732=PRODUCT_CATEGORY('','');
#1733=PRODUCT_CATEGORY('','');
#1734=PRODUCT_CATEGORY('','');
#1735=PRODUCT_CATEGORY('','');
#1736=PRODUCT_CONTEXT('',#1750,'mechanical');
#1737=PRODUCT_CONTEXT('',#1751,'mechanical');
#1738=PRODUCT_CONTEXT('',#1752,'mechanical');
#1739=PRODUCT_CONTEXT('',#1753,'mechanical');
#1740=PRODUCT_CONTEXT('',#1754,'mechanical');
#1741=PRODUCT_CONTEXT('',#1755,'mechanical');
#1742=PRODUCT_CONTEXT('',#1756,'mechanical');
#1743=APPLICATION_PROTOCOL_DEFINITION('international standard',
'ap242_managed_model_based_3d_engineering',2020,#1750);
#1744=APPLICATION_PROTOCOL_DEFINITION('international standard',
'ap242_managed_model_based_3d_engineering',2020,#1751);
#1745=APPLICATION_PROTOCOL_DEFINITION('international standard',
'ap242_managed_model_based_3d_engineering',2020,#1752);
#1746=APPLICATION_PROTOCOL_DEFINITION('international standard',
'ap242_managed_model_based_3d_engineering',2020,#1753);
#1747=APPLICATION_PROTOCOL_DEFINITION('international standard',
'ap242_managed_model_based_3d_engineering',2020,#1754);
#1748=APPLICATION_PROTOCOL_DEFINITION('international standard',
'ap242_managed_model_based_3d_engineering',2020,#1755);
#1749=APPLICATION_PROTOCOL_DEFINITION('international standard',
'ap242_managed_model_based_3d_engineering',2020,#1756);
#1750=APPLICATION_CONTEXT('managed model based 3d engineering');
#1751=APPLICATION_CONTEXT('managed model based 3d engineering');
#1752=APPLICATION_CONTEXT('managed model based 3d engineering');
#1753=APPLICATION_CONTEXT('managed model based 3d engineering');
#1754=APPLICATION_CONTEXT('managed model based 3d engineering');
#1755=APPLICATION_CONTEXT('managed model based 3d engineering');
#1756=APPLICATION_CONTEXT('managed model based 3d engineering');
ENDSEC;
END-ISO-10303-21;
