ISO-10303-21;
HEADER;
/* Generated by software containing ST-Developer
 * from STEP Tools, Inc. (www.steptools.com) 
 */
/* OPTION: using custom renumber hook */

FILE_DESCRIPTION(
/* description */ ('STEP AP242 Edition 2',
'CAx-IF Rec.Pracs.---Representation and Presentation of Product Manufa
cturing Information (PMI)---4.0---2014-10-13',
'CAx-IF Rec.Pracs.---3D Tessellated Geometry---0.4---2014-09-14','2;1',
'CAx-IF Rec.Pracs.---User Defined Attributes---1.5---2016-08-15'),
/* implementation_level */ '2;1');

FILE_NAME(
/* name */ 'Battery',
/* time_stamp */ '2026-10-04T14:07:08Z',
/* author */ (''),
/* organization */ (''),
/* preprocessor_version */ 'ST-DEVELOPER v20',
/* originating_system */ 'ONSHAPE BY PTC INC, 1.221',
/* authorisation */ '  ');

FILE_SCHEMA (('AP242_MANAGED_MODEL_BASED_3D_ENGINEERING_MIM_LF { 1 0 10303 442 3 1 4 }'));
ENDSEC;

DATA;
#10=SHAPE_REPRESENTATION_RELATIONSHIP('','',#654,#11);
#11=ADVANCED_BREP_SHAPE_REPRESENTATION('',(#652),#1048);
#12=OVER_RIDING_STYLED_ITEM('',(#542),#521,#540);
#13=OVER_RIDING_STYLED_ITEM('',(#543),#522,#540);
#14=OVER_RIDING_STYLED_ITEM('',(#544),#523,#540);
#15=OVER_RIDING_STYLED_ITEM('',(#545),#524,#540);
#16=OVER_RIDING_STYLED_ITEM('',(#546),#525,#540);
#17=OVER_RIDING_STYLED_ITEM('',(#547),#526,#540);
#18=OVER_RIDING_STYLED_ITEM('',(#548),#527,#540);
#19=OVER_RIDING_STYLED_ITEM('',(#549),#528,#540);
#20=OVER_RIDING_STYLED_ITEM('',(#550),#530,#540);
#21=OVER_RIDING_STYLED_ITEM('',(#551),#531,#540);
#22=OVER_RIDING_STYLED_ITEM('',(#552),#532,#540);
#23=OVER_RIDING_STYLED_ITEM('',(#553),#533,#540);
#24=OVER_RIDING_STYLED_ITEM('',(#554),#534,#540);
#25=OVER_RIDING_STYLED_ITEM('',(#555),#535,#540);
#26=OVER_RIDING_STYLED_ITEM('',(#556),#536,#540);
#27=OVER_RIDING_STYLED_ITEM('',(#557),#537,#540);
#28=OVER_RIDING_STYLED_ITEM('',(#558),#538,#540);
#29=SPHERICAL_SURFACE('',#664,3.);
#30=SPHERICAL_SURFACE('',#667,3.);
#31=SPHERICAL_SURFACE('',#681,3.);
#32=SPHERICAL_SURFACE('',#683,3.);
#33=SPHERICAL_SURFACE('',#707,3.05);
#34=SPHERICAL_SURFACE('',#712,3.05);
#35=SPHERICAL_SURFACE('',#716,3.05);
#36=SPHERICAL_SURFACE('',#720,3.05);
#37=CIRCLE('',#662,3.);
#38=CIRCLE('',#663,3.);
#39=CIRCLE('',#665,3.);
#40=CIRCLE('',#666,3.);
#41=CIRCLE('',#668,3.);
#42=CIRCLE('',#669,3.);
#43=CIRCLE('',#671,3.);
#44=CIRCLE('',#673,3.);
#45=CIRCLE('',#675,3.);
#46=CIRCLE('',#677,3.);
#47=CIRCLE('',#679,3.);
#48=CIRCLE('',#680,3.);
#49=CIRCLE('',#682,3.);
#50=CIRCLE('',#684,3.);
#51=CIRCLE('',#686,3.);
#52=CIRCLE('',#688,3.);
#53=CIRCLE('',#691,3.05);
#54=CIRCLE('',#692,3.05);
#55=CIRCLE('',#695,3.05);
#56=CIRCLE('',#696,3.05);
#57=CIRCLE('',#699,3.05);
#58=CIRCLE('',#700,3.05);
#59=CIRCLE('',#703,3.05);
#60=CIRCLE('',#704,3.05);
#61=CIRCLE('',#708,3.05);
#62=CIRCLE('',#709,3.05);
#63=CIRCLE('',#711,3.05);
#64=CIRCLE('',#713,3.05);
#65=CIRCLE('',#715,3.05);
#66=CIRCLE('',#717,3.05);
#67=CIRCLE('',#719,3.05);
#68=CIRCLE('',#721,3.05);
#69=CYLINDRICAL_SURFACE('',#661,3.);
#70=CYLINDRICAL_SURFACE('',#670,3.);
#71=CYLINDRICAL_SURFACE('',#672,3.);
#72=CYLINDRICAL_SURFACE('',#674,3.);
#73=CYLINDRICAL_SURFACE('',#676,3.);
#74=CYLINDRICAL_SURFACE('',#678,3.);
#75=CYLINDRICAL_SURFACE('',#685,3.);
#76=CYLINDRICAL_SURFACE('',#687,3.);
#77=CYLINDRICAL_SURFACE('',#690,3.05);
#78=CYLINDRICAL_SURFACE('',#694,3.05);
#79=CYLINDRICAL_SURFACE('',#698,3.05);
#80=CYLINDRICAL_SURFACE('',#702,3.05);
#81=CYLINDRICAL_SURFACE('',#710,3.05);
#82=CYLINDRICAL_SURFACE('',#714,3.05);
#83=CYLINDRICAL_SURFACE('',#718,3.05);
#84=CYLINDRICAL_SURFACE('',#722,3.05);
#85=ORIENTED_EDGE('',*,*,#229,.T.);
#86=ORIENTED_EDGE('',*,*,#230,.T.);
#87=ORIENTED_EDGE('',*,*,#231,.T.);
#88=ORIENTED_EDGE('',*,*,#232,.T.);
#89=ORIENTED_EDGE('',*,*,#233,.T.);
#90=ORIENTED_EDGE('',*,*,#234,.T.);
#91=ORIENTED_EDGE('',*,*,#235,.T.);
#92=ORIENTED_EDGE('',*,*,#236,.T.);
#93=ORIENTED_EDGE('',*,*,#237,.T.);
#94=ORIENTED_EDGE('',*,*,#238,.T.);
#95=ORIENTED_EDGE('',*,*,#239,.T.);
#96=ORIENTED_EDGE('',*,*,#240,.T.);
#97=ORIENTED_EDGE('',*,*,#241,.T.);
#98=ORIENTED_EDGE('',*,*,#242,.T.);
#99=ORIENTED_EDGE('',*,*,#243,.T.);
#100=ORIENTED_EDGE('',*,*,#244,.T.);
#101=ORIENTED_EDGE('',*,*,#245,.T.);
#102=ORIENTED_EDGE('',*,*,#246,.T.);
#103=ORIENTED_EDGE('',*,*,#247,.T.);
#104=ORIENTED_EDGE('',*,*,#248,.T.);
#105=ORIENTED_EDGE('',*,*,#249,.F.);
#106=ORIENTED_EDGE('',*,*,#236,.F.);
#107=ORIENTED_EDGE('',*,*,#250,.F.);
#108=ORIENTED_EDGE('',*,*,#237,.F.);
#109=ORIENTED_EDGE('',*,*,#251,.F.);
#110=ORIENTED_EDGE('',*,*,#249,.T.);
#111=ORIENTED_EDGE('',*,*,#252,.F.);
#112=ORIENTED_EDGE('',*,*,#253,.F.);
#113=ORIENTED_EDGE('',*,*,#250,.T.);
#114=ORIENTED_EDGE('',*,*,#254,.F.);
#115=ORIENTED_EDGE('',*,*,#252,.T.);
#116=ORIENTED_EDGE('',*,*,#240,.F.);
#117=ORIENTED_EDGE('',*,*,#255,.F.);
#118=ORIENTED_EDGE('',*,*,#243,.F.);
#119=ORIENTED_EDGE('',*,*,#256,.F.);
#120=ORIENTED_EDGE('',*,*,#233,.F.);
#121=ORIENTED_EDGE('',*,*,#251,.T.);
#122=ORIENTED_EDGE('',*,*,#242,.F.);
#123=ORIENTED_EDGE('',*,*,#257,.F.);
#124=ORIENTED_EDGE('',*,*,#245,.F.);
#125=ORIENTED_EDGE('',*,*,#254,.T.);
#126=ORIENTED_EDGE('',*,*,#235,.F.);
#127=ORIENTED_EDGE('',*,*,#253,.T.);
#128=ORIENTED_EDGE('',*,*,#248,.F.);
#129=ORIENTED_EDGE('',*,*,#258,.F.);
#130=ORIENTED_EDGE('',*,*,#238,.F.);
#131=ORIENTED_EDGE('',*,*,#259,.F.);
#132=ORIENTED_EDGE('',*,*,#239,.F.);
#133=ORIENTED_EDGE('',*,*,#260,.F.);
#134=ORIENTED_EDGE('',*,*,#231,.F.);
#135=ORIENTED_EDGE('',*,*,#255,.T.);
#136=ORIENTED_EDGE('',*,*,#259,.T.);
#137=ORIENTED_EDGE('',*,*,#261,.F.);
#138=ORIENTED_EDGE('',*,*,#260,.T.);
#139=ORIENTED_EDGE('',*,*,#258,.T.);
#140=ORIENTED_EDGE('',*,*,#262,.F.);
#141=ORIENTED_EDGE('',*,*,#263,.F.);
#142=ORIENTED_EDGE('',*,*,#244,.F.);
#143=ORIENTED_EDGE('',*,*,#261,.T.);
#144=ORIENTED_EDGE('',*,*,#230,.F.);
#145=ORIENTED_EDGE('',*,*,#264,.F.);
#146=ORIENTED_EDGE('',*,*,#232,.F.);
#147=ORIENTED_EDGE('',*,*,#262,.T.);
#148=ORIENTED_EDGE('',*,*,#247,.F.);
#149=ORIENTED_EDGE('',*,*,#265,.T.);
#150=ORIENTED_EDGE('',*,*,#266,.F.);
#151=ORIENTED_EDGE('',*,*,#267,.F.);
#152=ORIENTED_EDGE('',*,*,#268,.T.);
#153=ORIENTED_EDGE('',*,*,#269,.F.);
#154=ORIENTED_EDGE('',*,*,#270,.F.);
#155=ORIENTED_EDGE('',*,*,#271,.T.);
#156=ORIENTED_EDGE('',*,*,#266,.T.);
#157=ORIENTED_EDGE('',*,*,#272,.T.);
#158=ORIENTED_EDGE('',*,*,#273,.F.);
#159=ORIENTED_EDGE('',*,*,#274,.F.);
#160=ORIENTED_EDGE('',*,*,#270,.T.);
#161=ORIENTED_EDGE('',*,*,#275,.F.);
#162=ORIENTED_EDGE('',*,*,#276,.F.);
#163=ORIENTED_EDGE('',*,*,#277,.T.);
#164=ORIENTED_EDGE('',*,*,#273,.T.);
#165=ORIENTED_EDGE('',*,*,#278,.T.);
#166=ORIENTED_EDGE('',*,*,#279,.F.);
#167=ORIENTED_EDGE('',*,*,#280,.F.);
#168=ORIENTED_EDGE('',*,*,#276,.T.);
#169=ORIENTED_EDGE('',*,*,#281,.F.);
#170=ORIENTED_EDGE('',*,*,#282,.F.);
#171=ORIENTED_EDGE('',*,*,#283,.T.);
#172=ORIENTED_EDGE('',*,*,#279,.T.);
#173=ORIENTED_EDGE('',*,*,#284,.T.);
#174=ORIENTED_EDGE('',*,*,#285,.F.);
#175=ORIENTED_EDGE('',*,*,#286,.F.);
#176=ORIENTED_EDGE('',*,*,#282,.T.);
#177=ORIENTED_EDGE('',*,*,#287,.F.);
#178=ORIENTED_EDGE('',*,*,#268,.F.);
#179=ORIENTED_EDGE('',*,*,#288,.T.);
#180=ORIENTED_EDGE('',*,*,#285,.T.);
#181=ORIENTED_EDGE('',*,*,#267,.T.);
#182=ORIENTED_EDGE('',*,*,#271,.F.);
#183=ORIENTED_EDGE('',*,*,#274,.T.);
#184=ORIENTED_EDGE('',*,*,#277,.F.);
#185=ORIENTED_EDGE('',*,*,#280,.T.);
#186=ORIENTED_EDGE('',*,*,#283,.F.);
#187=ORIENTED_EDGE('',*,*,#286,.T.);
#188=ORIENTED_EDGE('',*,*,#288,.F.);
#189=ORIENTED_EDGE('',*,*,#246,.F.);
#190=ORIENTED_EDGE('',*,*,#257,.T.);
#191=ORIENTED_EDGE('',*,*,#234,.F.);
#192=ORIENTED_EDGE('',*,*,#256,.T.);
#193=ORIENTED_EDGE('',*,*,#241,.F.);
#194=ORIENTED_EDGE('',*,*,#263,.T.);
#195=ORIENTED_EDGE('',*,*,#229,.F.);
#196=ORIENTED_EDGE('',*,*,#264,.T.);
#197=ORIENTED_EDGE('',*,*,#289,.T.);
#198=ORIENTED_EDGE('',*,*,#290,.T.);
#199=ORIENTED_EDGE('',*,*,#291,.T.);
#200=ORIENTED_EDGE('',*,*,#292,.T.);
#201=ORIENTED_EDGE('',*,*,#287,.T.);
#202=ORIENTED_EDGE('',*,*,#293,.T.);
#203=ORIENTED_EDGE('',*,*,#294,.F.);
#204=ORIENTED_EDGE('',*,*,#293,.F.);
#205=ORIENTED_EDGE('',*,*,#284,.F.);
#206=ORIENTED_EDGE('',*,*,#295,.F.);
#207=ORIENTED_EDGE('',*,*,#291,.F.);
#208=ORIENTED_EDGE('',*,*,#295,.T.);
#209=ORIENTED_EDGE('',*,*,#281,.T.);
#210=ORIENTED_EDGE('',*,*,#296,.F.);
#211=ORIENTED_EDGE('',*,*,#296,.T.);
#212=ORIENTED_EDGE('',*,*,#278,.F.);
#213=ORIENTED_EDGE('',*,*,#297,.F.);
#214=ORIENTED_EDGE('',*,*,#292,.F.);
#215=ORIENTED_EDGE('',*,*,#297,.T.);
#216=ORIENTED_EDGE('',*,*,#275,.T.);
#217=ORIENTED_EDGE('',*,*,#298,.F.);
#218=ORIENTED_EDGE('',*,*,#298,.T.);
#219=ORIENTED_EDGE('',*,*,#272,.F.);
#220=ORIENTED_EDGE('',*,*,#299,.T.);
#221=ORIENTED_EDGE('',*,*,#289,.F.);
#222=ORIENTED_EDGE('',*,*,#269,.T.);
#223=ORIENTED_EDGE('',*,*,#300,.T.);
#224=ORIENTED_EDGE('',*,*,#299,.F.);
#225=ORIENTED_EDGE('',*,*,#294,.T.);
#226=ORIENTED_EDGE('',*,*,#290,.F.);
#227=ORIENTED_EDGE('',*,*,#300,.F.);
#228=ORIENTED_EDGE('',*,*,#265,.F.);
#229=EDGE_CURVE('',#301,#302,#341,.F.);
#230=EDGE_CURVE('',#302,#303,#342,.T.);
#231=EDGE_CURVE('',#303,#304,#343,.T.);
#232=EDGE_CURVE('',#304,#301,#344,.F.);
#233=EDGE_CURVE('',#305,#306,#345,.F.);
#234=EDGE_CURVE('',#306,#307,#346,.T.);
#235=EDGE_CURVE('',#307,#308,#347,.T.);
#236=EDGE_CURVE('',#308,#305,#348,.F.);
#237=EDGE_CURVE('',#309,#310,#349,.T.);
#238=EDGE_CURVE('',#310,#311,#350,.F.);
#239=EDGE_CURVE('',#311,#312,#351,.F.);
#240=EDGE_CURVE('',#312,#309,#352,.T.);
#241=EDGE_CURVE('',#313,#314,#353,.T.);
#242=EDGE_CURVE('',#314,#315,#354,.T.);
#243=EDGE_CURVE('',#315,#316,#355,.F.);
#244=EDGE_CURVE('',#316,#313,#356,.F.);
#245=EDGE_CURVE('',#317,#318,#357,.F.);
#246=EDGE_CURVE('',#318,#319,#358,.F.);
#247=EDGE_CURVE('',#319,#320,#359,.T.);
#248=EDGE_CURVE('',#320,#317,#360,.T.);
#249=EDGE_CURVE('',#305,#309,#37,.T.);
#250=EDGE_CURVE('',#310,#308,#38,.T.);
#251=EDGE_CURVE('',#305,#315,#39,.F.);
#252=EDGE_CURVE('',#315,#309,#40,.F.);
#253=EDGE_CURVE('',#310,#317,#41,.F.);
#254=EDGE_CURVE('',#317,#308,#42,.F.);
#255=EDGE_CURVE('',#316,#312,#43,.T.);
#256=EDGE_CURVE('',#306,#314,#44,.T.);
#257=EDGE_CURVE('',#318,#307,#45,.T.);
#258=EDGE_CURVE('',#311,#320,#46,.T.);
#259=EDGE_CURVE('',#312,#303,#47,.T.);
#260=EDGE_CURVE('',#304,#311,#48,.T.);
#261=EDGE_CURVE('',#316,#303,#49,.F.);
#262=EDGE_CURVE('',#304,#320,#50,.F.);
#263=EDGE_CURVE('',#313,#302,#51,.T.);
#264=EDGE_CURVE('',#301,#319,#52,.T.);
#265=EDGE_CURVE('',#321,#322,#361,.F.);
#266=EDGE_CURVE('',#323,#322,#362,.T.);
#267=EDGE_CURVE('',#324,#323,#363,.F.);
#268=EDGE_CURVE('',#324,#321,#364,.T.);
#269=EDGE_CURVE('',#325,#322,#53,.T.);
#270=EDGE_CURVE('',#326,#325,#365,.T.);
#271=EDGE_CURVE('',#326,#323,#54,.T.);
#272=EDGE_CURVE('',#325,#327,#366,.T.);
#273=EDGE_CURVE('',#328,#327,#367,.T.);
#274=EDGE_CURVE('',#326,#328,#368,.T.);
#275=EDGE_CURVE('',#329,#327,#55,.F.);
#276=EDGE_CURVE('',#330,#329,#369,.T.);
#277=EDGE_CURVE('',#330,#328,#56,.F.);
#278=EDGE_CURVE('',#329,#331,#370,.F.);
#279=EDGE_CURVE('',#332,#331,#371,.T.);
#280=EDGE_CURVE('',#330,#332,#372,.F.);
#281=EDGE_CURVE('',#333,#331,#57,.F.);
#282=EDGE_CURVE('',#334,#333,#373,.T.);
#283=EDGE_CURVE('',#334,#332,#58,.F.);
#284=EDGE_CURVE('',#333,#335,#374,.T.);
#285=EDGE_CURVE('',#336,#335,#375,.T.);
#286=EDGE_CURVE('',#334,#336,#376,.T.);
#287=EDGE_CURVE('',#321,#335,#59,.T.);
#288=EDGE_CURVE('',#324,#336,#60,.T.);
#289=EDGE_CURVE('',#337,#338,#377,.T.);
#290=EDGE_CURVE('',#338,#339,#378,.F.);
#291=EDGE_CURVE('',#339,#340,#379,.F.);
#292=EDGE_CURVE('',#340,#337,#380,.T.);
#293=EDGE_CURVE('',#335,#339,#61,.F.);
#294=EDGE_CURVE('',#321,#339,#62,.F.);
#295=EDGE_CURVE('',#340,#333,#63,.T.);
#296=EDGE_CURVE('',#340,#331,#64,.T.);
#297=EDGE_CURVE('',#337,#329,#65,.T.);
#298=EDGE_CURVE('',#337,#327,#66,.F.);
#299=EDGE_CURVE('',#325,#338,#67,.T.);
#300=EDGE_CURVE('',#322,#338,#68,.F.);
#301=VERTEX_POINT('',#902);
#302=VERTEX_POINT('',#903);
#303=VERTEX_POINT('',#905);
#304=VERTEX_POINT('',#907);
#305=VERTEX_POINT('',#911);
#306=VERTEX_POINT('',#912);
#307=VERTEX_POINT('',#914);
#308=VERTEX_POINT('',#916);
#309=VERTEX_POINT('',#920);
#310=VERTEX_POINT('',#921);
#311=VERTEX_POINT('',#923);
#312=VERTEX_POINT('',#925);
#313=VERTEX_POINT('',#929);
#314=VERTEX_POINT('',#930);
#315=VERTEX_POINT('',#932);
#316=VERTEX_POINT('',#934);
#317=VERTEX_POINT('',#938);
#318=VERTEX_POINT('',#939);
#319=VERTEX_POINT('',#941);
#320=VERTEX_POINT('',#943);
#321=VERTEX_POINT('',#975);
#322=VERTEX_POINT('',#976);
#323=VERTEX_POINT('',#978);
#324=VERTEX_POINT('',#980);
#325=VERTEX_POINT('',#984);
#326=VERTEX_POINT('',#986);
#327=VERTEX_POINT('',#990);
#328=VERTEX_POINT('',#992);
#329=VERTEX_POINT('',#996);
#330=VERTEX_POINT('',#998);
#331=VERTEX_POINT('',#1002);
#332=VERTEX_POINT('',#1004);
#333=VERTEX_POINT('',#1008);
#334=VERTEX_POINT('',#1010);
#335=VERTEX_POINT('',#1014);
#336=VERTEX_POINT('',#1016);
#337=VERTEX_POINT('',#1024);
#338=VERTEX_POINT('',#1025);
#339=VERTEX_POINT('',#1027);
#340=VERTEX_POINT('',#1029);
#341=LINE('',#901,#381);
#342=LINE('',#904,#382);
#343=LINE('',#906,#383);
#344=LINE('',#908,#384);
#345=LINE('',#910,#385);
#346=LINE('',#913,#386);
#347=LINE('',#915,#387);
#348=LINE('',#917,#388);
#349=LINE('',#919,#389);
#350=LINE('',#922,#390);
#351=LINE('',#924,#391);
#352=LINE('',#926,#392);
#353=LINE('',#928,#393);
#354=LINE('',#931,#394);
#355=LINE('',#933,#395);
#356=LINE('',#935,#396);
#357=LINE('',#937,#397);
#358=LINE('',#940,#398);
#359=LINE('',#942,#399);
#360=LINE('',#944,#400);
#361=LINE('',#974,#401);
#362=LINE('',#977,#402);
#363=LINE('',#979,#403);
#364=LINE('',#981,#404);
#365=LINE('',#985,#405);
#366=LINE('',#989,#406);
#367=LINE('',#991,#407);
#368=LINE('',#993,#408);
#369=LINE('',#997,#409);
#370=LINE('',#1001,#410);
#371=LINE('',#1003,#411);
#372=LINE('',#1005,#412);
#373=LINE('',#1009,#413);
#374=LINE('',#1013,#414);
#375=LINE('',#1015,#415);
#376=LINE('',#1017,#416);
#377=LINE('',#1023,#417);
#378=LINE('',#1026,#418);
#379=LINE('',#1028,#419);
#380=LINE('',#1030,#420);
#381=VECTOR('',#727,1000.);
#382=VECTOR('',#728,1000.);
#383=VECTOR('',#729,1000.);
#384=VECTOR('',#730,1000.);
#385=VECTOR('',#733,1000.);
#386=VECTOR('',#734,1000.);
#387=VECTOR('',#735,1000.);
#388=VECTOR('',#736,1000.);
#389=VECTOR('',#739,1000.);
#390=VECTOR('',#740,1000.);
#391=VECTOR('',#741,1000.);
#392=VECTOR('',#742,1000.);
#393=VECTOR('',#745,1000.);
#394=VECTOR('',#746,1000.);
#395=VECTOR('',#747,1000.);
#396=VECTOR('',#748,1000.);
#397=VECTOR('',#751,1000.);
#398=VECTOR('',#752,1000.);
#399=VECTOR('',#753,1000.);
#400=VECTOR('',#754,1000.);
#401=VECTOR('',#813,1000.);
#402=VECTOR('',#814,1000.);
#403=VECTOR('',#815,1000.);
#404=VECTOR('',#816,1000.);
#405=VECTOR('',#821,1000.);
#406=VECTOR('',#826,1000.);
#407=VECTOR('',#827,1000.);
#408=VECTOR('',#828,1000.);
#409=VECTOR('',#833,1000.);
#410=VECTOR('',#838,1000.);
#411=VECTOR('',#839,1000.);
#412=VECTOR('',#840,1000.);
#413=VECTOR('',#845,1000.);
#414=VECTOR('',#850,1000.);
#415=VECTOR('',#851,1000.);
#416=VECTOR('',#852,1000.);
#417=VECTOR('',#863,1000.);
#418=VECTOR('',#864,1000.);
#419=VECTOR('',#865,1000.);
#420=VECTOR('',#866,1000.);
#421=EDGE_LOOP('',(#85,#86,#87,#88));
#422=EDGE_LOOP('',(#89,#90,#91,#92));
#423=EDGE_LOOP('',(#93,#94,#95,#96));
#424=EDGE_LOOP('',(#97,#98,#99,#100));
#425=EDGE_LOOP('',(#101,#102,#103,#104));
#426=EDGE_LOOP('',(#105,#106,#107,#108));
#427=EDGE_LOOP('',(#109,#110,#111));
#428=EDGE_LOOP('',(#112,#113,#114));
#429=EDGE_LOOP('',(#115,#116,#117,#118));
#430=EDGE_LOOP('',(#119,#120,#121,#122));
#431=EDGE_LOOP('',(#123,#124,#125,#126));
#432=EDGE_LOOP('',(#127,#128,#129,#130));
#433=EDGE_LOOP('',(#131,#132,#133,#134));
#434=EDGE_LOOP('',(#135,#136,#137));
#435=EDGE_LOOP('',(#138,#139,#140));
#436=EDGE_LOOP('',(#141,#142,#143,#144));
#437=EDGE_LOOP('',(#145,#146,#147,#148));
#438=EDGE_LOOP('',(#149,#150,#151,#152));
#439=EDGE_LOOP('',(#153,#154,#155,#156));
#440=EDGE_LOOP('',(#157,#158,#159,#160));
#441=EDGE_LOOP('',(#161,#162,#163,#164));
#442=EDGE_LOOP('',(#165,#166,#167,#168));
#443=EDGE_LOOP('',(#169,#170,#171,#172));
#444=EDGE_LOOP('',(#173,#174,#175,#176));
#445=EDGE_LOOP('',(#177,#178,#179,#180));
#446=EDGE_LOOP('',(#181,#182,#183,#184,#185,#186,#187,#188));
#447=EDGE_LOOP('',(#189,#190,#191,#192,#193,#194,#195,#196));
#448=EDGE_LOOP('',(#197,#198,#199,#200));
#449=EDGE_LOOP('',(#201,#202,#203));
#450=EDGE_LOOP('',(#204,#205,#206,#207));
#451=EDGE_LOOP('',(#208,#209,#210));
#452=EDGE_LOOP('',(#211,#212,#213,#214));
#453=EDGE_LOOP('',(#215,#216,#217));
#454=EDGE_LOOP('',(#218,#219,#220,#221));
#455=EDGE_LOOP('',(#222,#223,#224));
#456=EDGE_LOOP('',(#225,#226,#227,#228));
#457=FACE_BOUND('',#421,.T.);
#458=FACE_BOUND('',#422,.T.);
#459=FACE_BOUND('',#423,.T.);
#460=FACE_BOUND('',#424,.T.);
#461=FACE_BOUND('',#425,.T.);
#462=FACE_BOUND('',#426,.T.);
#463=FACE_BOUND('',#427,.T.);
#464=FACE_BOUND('',#428,.T.);
#465=FACE_BOUND('',#429,.T.);
#466=FACE_BOUND('',#430,.T.);
#467=FACE_BOUND('',#431,.T.);
#468=FACE_BOUND('',#432,.T.);
#469=FACE_BOUND('',#433,.T.);
#470=FACE_BOUND('',#434,.T.);
#471=FACE_BOUND('',#435,.T.);
#472=FACE_BOUND('',#436,.T.);
#473=FACE_BOUND('',#437,.T.);
#474=FACE_BOUND('',#438,.T.);
#475=FACE_BOUND('',#439,.T.);
#476=FACE_BOUND('',#440,.T.);
#477=FACE_BOUND('',#441,.T.);
#478=FACE_BOUND('',#442,.T.);
#479=FACE_BOUND('',#443,.T.);
#480=FACE_BOUND('',#444,.T.);
#481=FACE_BOUND('',#445,.T.);
#482=FACE_BOUND('',#446,.T.);
#483=FACE_BOUND('',#447,.T.);
#484=FACE_BOUND('',#448,.T.);
#485=FACE_BOUND('',#449,.T.);
#486=FACE_BOUND('',#450,.T.);
#487=FACE_BOUND('',#451,.T.);
#488=FACE_BOUND('',#452,.T.);
#489=FACE_BOUND('',#453,.T.);
#490=FACE_BOUND('',#454,.T.);
#491=FACE_BOUND('',#455,.T.);
#492=FACE_BOUND('',#456,.T.);
#493=PLANE('',#656);
#494=PLANE('',#657);
#495=PLANE('',#658);
#496=PLANE('',#659);
#497=PLANE('',#660);
#498=PLANE('',#689);
#499=PLANE('',#693);
#500=PLANE('',#697);
#501=PLANE('',#701);
#502=PLANE('',#705);
#503=PLANE('',#706);
#504=ADVANCED_FACE('',(#457),#493,.T.);
#505=ADVANCED_FACE('',(#458),#494,.F.);
#506=ADVANCED_FACE('',(#459),#495,.T.);
#507=ADVANCED_FACE('',(#460),#496,.T.);
#508=ADVANCED_FACE('',(#461),#497,.F.);
#509=ADVANCED_FACE('',(#462),#69,.T.);
#510=ADVANCED_FACE('',(#463),#29,.T.);
#511=ADVANCED_FACE('',(#464),#30,.T.);
#512=ADVANCED_FACE('',(#465),#70,.T.);
#513=ADVANCED_FACE('',(#466),#71,.T.);
#514=ADVANCED_FACE('',(#467),#72,.T.);
#515=ADVANCED_FACE('',(#468),#73,.T.);
#516=ADVANCED_FACE('',(#469),#74,.T.);
#517=ADVANCED_FACE('',(#470),#31,.T.);
#518=ADVANCED_FACE('',(#471),#32,.T.);
#519=ADVANCED_FACE('',(#472),#75,.T.);
#520=ADVANCED_FACE('',(#473),#76,.T.);
#521=ADVANCED_FACE('Face appearance 2',(#474),#498,.F.);
#522=ADVANCED_FACE('Face appearance 2',(#475),#77,.T.);
#523=ADVANCED_FACE('Face appearance 2',(#476),#499,.F.);
#524=ADVANCED_FACE('Face appearance 2',(#477),#78,.T.);
#525=ADVANCED_FACE('Face appearance 1',(#478),#500,.F.);
#526=ADVANCED_FACE('Face appearance 2',(#479),#79,.T.);
#527=ADVANCED_FACE('Face appearance 2',(#480),#501,.F.);
#528=ADVANCED_FACE('Face appearance 2',(#481),#80,.T.);
#529=ADVANCED_FACE('',(#482,#483),#502,.T.);
#530=ADVANCED_FACE('Face appearance 2',(#484),#503,.F.);
#531=ADVANCED_FACE('Face appearance 2',(#485),#33,.T.);
#532=ADVANCED_FACE('Face appearance 2',(#486),#81,.T.);
#533=ADVANCED_FACE('Face appearance 2',(#487),#34,.T.);
#534=ADVANCED_FACE('Face appearance 2',(#488),#82,.T.);
#535=ADVANCED_FACE('Face appearance 2',(#489),#35,.T.);
#536=ADVANCED_FACE('Face appearance 2',(#490),#83,.T.);
#537=ADVANCED_FACE('Face appearance 2',(#491),#36,.T.);
#538=ADVANCED_FACE('Face appearance 2',(#492),#84,.T.);
#539=CLOSED_SHELL('',(#504,#505,#506,#507,#508,#509,#510,#511,#512,#513,
#514,#515,#516,#517,#518,#519,#520,#521,#522,#523,#524,#525,#526,#527,#528,
#529,#530,#531,#532,#533,#534,#535,#536,#537,#538));
#540=STYLED_ITEM('',(#541),#652);
#541=PRESENTATION_STYLE_ASSIGNMENT((#559));
#542=PRESENTATION_STYLE_ASSIGNMENT((#560));
#543=PRESENTATION_STYLE_ASSIGNMENT((#561));
#544=PRESENTATION_STYLE_ASSIGNMENT((#562));
#545=PRESENTATION_STYLE_ASSIGNMENT((#563));
#546=PRESENTATION_STYLE_ASSIGNMENT((#564));
#547=PRESENTATION_STYLE_ASSIGNMENT((#565));
#548=PRESENTATION_STYLE_ASSIGNMENT((#566));
#549=PRESENTATION_STYLE_ASSIGNMENT((#567));
#550=PRESENTATION_STYLE_ASSIGNMENT((#568));
#551=PRESENTATION_STYLE_ASSIGNMENT((#569));
#552=PRESENTATION_STYLE_ASSIGNMENT((#570));
#553=PRESENTATION_STYLE_ASSIGNMENT((#571));
#554=PRESENTATION_STYLE_ASSIGNMENT((#572));
#555=PRESENTATION_STYLE_ASSIGNMENT((#573));
#556=PRESENTATION_STYLE_ASSIGNMENT((#574));
#557=PRESENTATION_STYLE_ASSIGNMENT((#575));
#558=PRESENTATION_STYLE_ASSIGNMENT((#576));
#559=SURFACE_STYLE_USAGE(.BOTH.,#577);
#560=SURFACE_STYLE_USAGE(.BOTH.,#578);
#561=SURFACE_STYLE_USAGE(.BOTH.,#579);
#562=SURFACE_STYLE_USAGE(.BOTH.,#580);
#563=SURFACE_STYLE_USAGE(.BOTH.,#581);
#564=SURFACE_STYLE_USAGE(.BOTH.,#582);
#565=SURFACE_STYLE_USAGE(.BOTH.,#583);
#566=SURFACE_STYLE_USAGE(.BOTH.,#584);
#567=SURFACE_STYLE_USAGE(.BOTH.,#585);
#568=SURFACE_STYLE_USAGE(.BOTH.,#586);
#569=SURFACE_STYLE_USAGE(.BOTH.,#587);
#570=SURFACE_STYLE_USAGE(.BOTH.,#588);
#571=SURFACE_STYLE_USAGE(.BOTH.,#589);
#572=SURFACE_STYLE_USAGE(.BOTH.,#590);
#573=SURFACE_STYLE_USAGE(.BOTH.,#591);
#574=SURFACE_STYLE_USAGE(.BOTH.,#592);
#575=SURFACE_STYLE_USAGE(.BOTH.,#593);
#576=SURFACE_STYLE_USAGE(.BOTH.,#594);
#577=SURFACE_SIDE_STYLE('',(#595));
#578=SURFACE_SIDE_STYLE('',(#596));
#579=SURFACE_SIDE_STYLE('',(#597));
#580=SURFACE_SIDE_STYLE('',(#598));
#581=SURFACE_SIDE_STYLE('',(#599));
#582=SURFACE_SIDE_STYLE('',(#600));
#583=SURFACE_SIDE_STYLE('',(#601));
#584=SURFACE_SIDE_STYLE('',(#602));
#585=SURFACE_SIDE_STYLE('',(#603));
#586=SURFACE_SIDE_STYLE('',(#604));
#587=SURFACE_SIDE_STYLE('',(#605));
#588=SURFACE_SIDE_STYLE('',(#606));
#589=SURFACE_SIDE_STYLE('',(#607));
#590=SURFACE_SIDE_STYLE('',(#608));
#591=SURFACE_SIDE_STYLE('',(#609));
#592=SURFACE_SIDE_STYLE('',(#610));
#593=SURFACE_SIDE_STYLE('',(#611));
#594=SURFACE_SIDE_STYLE('',(#612));
#595=SURFACE_STYLE_FILL_AREA(#613);
#596=SURFACE_STYLE_FILL_AREA(#614);
#597=SURFACE_STYLE_FILL_AREA(#615);
#598=SURFACE_STYLE_FILL_AREA(#616);
#599=SURFACE_STYLE_FILL_AREA(#617);
#600=SURFACE_STYLE_FILL_AREA(#618);
#601=SURFACE_STYLE_FILL_AREA(#619);
#602=SURFACE_STYLE_FILL_AREA(#620);
#603=SURFACE_STYLE_FILL_AREA(#621);
#604=SURFACE_STYLE_FILL_AREA(#622);
#605=SURFACE_STYLE_FILL_AREA(#623);
#606=SURFACE_STYLE_FILL_AREA(#624);
#607=SURFACE_STYLE_FILL_AREA(#625);
#608=SURFACE_STYLE_FILL_AREA(#626);
#609=SURFACE_STYLE_FILL_AREA(#627);
#610=SURFACE_STYLE_FILL_AREA(#628);
#611=SURFACE_STYLE_FILL_AREA(#629);
#612=SURFACE_STYLE_FILL_AREA(#630);
#613=FILL_AREA_STYLE('',(#631));
#614=FILL_AREA_STYLE('',(#632));
#615=FILL_AREA_STYLE('',(#633));
#616=FILL_AREA_STYLE('',(#634));
#617=FILL_AREA_STYLE('',(#635));
#618=FILL_AREA_STYLE('',(#636));
#619=FILL_AREA_STYLE('',(#637));
#620=FILL_AREA_STYLE('',(#638));
#621=FILL_AREA_STYLE('',(#639));
#622=FILL_AREA_STYLE('',(#640));
#623=FILL_AREA_STYLE('',(#641));
#624=FILL_AREA_STYLE('',(#642));
#625=FILL_AREA_STYLE('',(#643));
#626=FILL_AREA_STYLE('',(#644));
#627=FILL_AREA_STYLE('',(#645));
#628=FILL_AREA_STYLE('',(#646));
#629=FILL_AREA_STYLE('',(#647));
#630=FILL_AREA_STYLE('',(#648));
#631=FILL_AREA_STYLE_COLOUR('',#649);
#632=FILL_AREA_STYLE_COLOUR('',#650);
#633=FILL_AREA_STYLE_COLOUR('',#650);
#634=FILL_AREA_STYLE_COLOUR('',#650);
#635=FILL_AREA_STYLE_COLOUR('',#650);
#636=FILL_AREA_STYLE_COLOUR('',#651);
#637=FILL_AREA_STYLE_COLOUR('',#650);
#638=FILL_AREA_STYLE_COLOUR('',#650);
#639=FILL_AREA_STYLE_COLOUR('',#650);
#640=FILL_AREA_STYLE_COLOUR('',#650);
#641=FILL_AREA_STYLE_COLOUR('',#650);
#642=FILL_AREA_STYLE_COLOUR('',#650);
#643=FILL_AREA_STYLE_COLOUR('',#650);
#644=FILL_AREA_STYLE_COLOUR('',#650);
#645=FILL_AREA_STYLE_COLOUR('',#650);
#646=FILL_AREA_STYLE_COLOUR('',#650);
#647=FILL_AREA_STYLE_COLOUR('',#650);
#648=FILL_AREA_STYLE_COLOUR('',#650);
#649=COLOUR_RGB('',0.917647058823529,0.917647058823529,0.917647058823529);
#650=COLOUR_RGB('',1.,0.756862745098039,0.0549019607843137);
#651=COLOUR_RGB('',0.980392156862745,0.796078431372549,0.262745098039216);
#652=MANIFOLD_SOLID_BREP('Part 1',#539);
#653=SHAPE_DEFINITION_REPRESENTATION(#1053,#654);
#654=SHAPE_REPRESENTATION('Part 1',(#655),#1048);
#655=AXIS2_PLACEMENT_3D('',#899,#723,#724);
#656=AXIS2_PLACEMENT_3D('',#900,#725,#726);
#657=AXIS2_PLACEMENT_3D('',#909,#731,#732);
#658=AXIS2_PLACEMENT_3D('',#918,#737,#738);
#659=AXIS2_PLACEMENT_3D('',#927,#743,#744);
#660=AXIS2_PLACEMENT_3D('',#936,#749,#750);
#661=AXIS2_PLACEMENT_3D('',#945,#755,#756);
#662=AXIS2_PLACEMENT_3D('',#946,#757,#758);
#663=AXIS2_PLACEMENT_3D('',#947,#759,#760);
#664=AXIS2_PLACEMENT_3D('',#948,#761,#762);
#665=AXIS2_PLACEMENT_3D('',#949,#763,#764);
#666=AXIS2_PLACEMENT_3D('',#950,#765,#766);
#667=AXIS2_PLACEMENT_3D('',#951,#767,#768);
#668=AXIS2_PLACEMENT_3D('',#952,#769,#770);
#669=AXIS2_PLACEMENT_3D('',#953,#771,#772);
#670=AXIS2_PLACEMENT_3D('',#954,#773,#774);
#671=AXIS2_PLACEMENT_3D('',#955,#775,#776);
#672=AXIS2_PLACEMENT_3D('',#956,#777,#778);
#673=AXIS2_PLACEMENT_3D('',#957,#779,#780);
#674=AXIS2_PLACEMENT_3D('',#958,#781,#782);
#675=AXIS2_PLACEMENT_3D('',#959,#783,#784);
#676=AXIS2_PLACEMENT_3D('',#960,#785,#786);
#677=AXIS2_PLACEMENT_3D('',#961,#787,#788);
#678=AXIS2_PLACEMENT_3D('',#962,#789,#790);
#679=AXIS2_PLACEMENT_3D('',#963,#791,#792);
#680=AXIS2_PLACEMENT_3D('',#964,#793,#794);
#681=AXIS2_PLACEMENT_3D('',#965,#795,#796);
#682=AXIS2_PLACEMENT_3D('',#966,#797,#798);
#683=AXIS2_PLACEMENT_3D('',#967,#799,#800);
#684=AXIS2_PLACEMENT_3D('',#968,#801,#802);
#685=AXIS2_PLACEMENT_3D('',#969,#803,#804);
#686=AXIS2_PLACEMENT_3D('',#970,#805,#806);
#687=AXIS2_PLACEMENT_3D('',#971,#807,#808);
#688=AXIS2_PLACEMENT_3D('',#972,#809,#810);
#689=AXIS2_PLACEMENT_3D('',#973,#811,#812);
#690=AXIS2_PLACEMENT_3D('',#982,#817,#818);
#691=AXIS2_PLACEMENT_3D('',#983,#819,#820);
#692=AXIS2_PLACEMENT_3D('',#987,#822,#823);
#693=AXIS2_PLACEMENT_3D('',#988,#824,#825);
#694=AXIS2_PLACEMENT_3D('',#994,#829,#830);
#695=AXIS2_PLACEMENT_3D('',#995,#831,#832);
#696=AXIS2_PLACEMENT_3D('',#999,#834,#835);
#697=AXIS2_PLACEMENT_3D('',#1000,#836,#837);
#698=AXIS2_PLACEMENT_3D('',#1006,#841,#842);
#699=AXIS2_PLACEMENT_3D('',#1007,#843,#844);
#700=AXIS2_PLACEMENT_3D('',#1011,#846,#847);
#701=AXIS2_PLACEMENT_3D('',#1012,#848,#849);
#702=AXIS2_PLACEMENT_3D('',#1018,#853,#854);
#703=AXIS2_PLACEMENT_3D('',#1019,#855,#856);
#704=AXIS2_PLACEMENT_3D('',#1020,#857,#858);
#705=AXIS2_PLACEMENT_3D('',#1021,#859,#860);
#706=AXIS2_PLACEMENT_3D('',#1022,#861,#862);
#707=AXIS2_PLACEMENT_3D('',#1031,#867,#868);
#708=AXIS2_PLACEMENT_3D('',#1032,#869,#870);
#709=AXIS2_PLACEMENT_3D('',#1033,#871,#872);
#710=AXIS2_PLACEMENT_3D('',#1034,#873,#874);
#711=AXIS2_PLACEMENT_3D('',#1035,#875,#876);
#712=AXIS2_PLACEMENT_3D('',#1036,#877,#878);
#713=AXIS2_PLACEMENT_3D('',#1037,#879,#880);
#714=AXIS2_PLACEMENT_3D('',#1038,#881,#882);
#715=AXIS2_PLACEMENT_3D('',#1039,#883,#884);
#716=AXIS2_PLACEMENT_3D('',#1040,#885,#886);
#717=AXIS2_PLACEMENT_3D('',#1041,#887,#888);
#718=AXIS2_PLACEMENT_3D('',#1042,#889,#890);
#719=AXIS2_PLACEMENT_3D('',#1043,#891,#892);
#720=AXIS2_PLACEMENT_3D('',#1044,#893,#894);
#721=AXIS2_PLACEMENT_3D('',#1045,#895,#896);
#722=AXIS2_PLACEMENT_3D('',#1046,#897,#898);
#723=DIRECTION('',(0.,0.,1.));
#724=DIRECTION('',(1.,0.,0.));
#725=DIRECTION('',(1.,-3.22739251344522E-16,0.));
#726=DIRECTION('',(3.22739251344522E-16,1.,0.));
#727=DIRECTION('',(0.,0.,-1.));
#728=DIRECTION('',(-3.22739251344522E-16,-1.,0.));
#729=DIRECTION('',(0.,0.,-1.));
#730=DIRECTION('',(-3.22739251344522E-16,-1.,0.));
#731=DIRECTION('',(1.,-3.22739251344522E-16,0.));
#732=DIRECTION('',(3.22739251344522E-16,1.,0.));
#733=DIRECTION('',(-3.22739251344522E-16,-1.,0.));
#734=DIRECTION('',(0.,0.,-1.));
#735=DIRECTION('',(-3.22739251344522E-16,-1.,0.));
#736=DIRECTION('',(0.,0.,-1.));
#737=DIRECTION('',(0.,-1.,0.));
#738=DIRECTION('',(0.,0.,-1.));
#739=DIRECTION('',(0.,0.,-1.));
#740=DIRECTION('',(-1.,0.,0.));
#741=DIRECTION('',(0.,0.,-1.));
#742=DIRECTION('',(-1.,0.,0.));
#743=DIRECTION('',(0.,0.,1.));
#744=DIRECTION('',(1.,0.,0.));
#745=DIRECTION('',(-1.,0.,0.));
#746=DIRECTION('',(-3.22739251344522E-16,-1.,0.));
#747=DIRECTION('',(-1.,0.,0.));
#748=DIRECTION('',(-3.22739251344522E-16,-1.,0.));
#749=DIRECTION('',(0.,0.,1.));
#750=DIRECTION('',(1.,0.,0.));
#751=DIRECTION('',(-3.22739251344522E-16,-1.,0.));
#752=DIRECTION('',(-1.,0.,0.));
#753=DIRECTION('',(-3.22739251344522E-16,-1.,0.));
#754=DIRECTION('',(-1.,0.,0.));
#755=DIRECTION('',(0.,0.,1.));
#756=DIRECTION('',(1.,0.,0.));
#757=DIRECTION('',(0.,0.,1.));
#758=DIRECTION('',(1.,0.,0.));
#759=DIRECTION('',(0.,0.,-1.));
#760=DIRECTION('',(-1.,0.,0.));
#761=DIRECTION('',(0.,-1.,0.));
#762=DIRECTION('',(0.,0.,-1.));
#763=DIRECTION('',(0.,-1.,0.));
#764=DIRECTION('',(0.,0.,-1.));
#765=DIRECTION('',(-1.,0.,0.));
#766=DIRECTION('',(0.,0.,1.));
#767=DIRECTION('',(-1.,0.,0.));
#768=DIRECTION('',(0.,0.,1.));
#769=DIRECTION('',(-1.,0.,0.));
#770=DIRECTION('',(0.,0.,1.));
#771=DIRECTION('',(0.,-1.,0.));
#772=DIRECTION('',(0.,0.,-1.));
#773=DIRECTION('',(-1.,0.,0.));
#774=DIRECTION('',(0.,0.,1.));
#775=DIRECTION('',(1.,0.,0.));
#776=DIRECTION('',(0.,0.,-1.));
#777=DIRECTION('',(3.22739251344522E-16,1.,0.));
#778=DIRECTION('',(-1.,3.22739251344522E-16,0.));
#779=DIRECTION('',(0.,1.,0.));
#780=DIRECTION('',(0.,0.,1.));
#781=DIRECTION('',(-3.22739251344522E-16,-1.,0.));
#782=DIRECTION('',(1.,-3.22739251344522E-16,0.));
#783=DIRECTION('',(0.,1.,0.));
#784=DIRECTION('',(0.,0.,1.));
#785=DIRECTION('',(1.,0.,0.));
#786=DIRECTION('',(0.,0.,-1.));
#787=DIRECTION('',(1.,0.,0.));
#788=DIRECTION('',(0.,0.,-1.));
#789=DIRECTION('',(0.,0.,-1.));
#790=DIRECTION('',(-1.,0.,0.));
#791=DIRECTION('',(0.,0.,1.));
#792=DIRECTION('',(1.,0.,0.));
#793=DIRECTION('',(0.,0.,-1.));
#794=DIRECTION('',(-1.,0.,0.));
#795=DIRECTION('',(0.,-1.,0.));
#796=DIRECTION('',(0.,0.,-1.));
#797=DIRECTION('',(0.,-1.,0.));
#798=DIRECTION('',(0.,0.,-1.));
#799=DIRECTION('',(0.,-1.,0.));
#800=DIRECTION('',(0.,0.,-1.));
#801=DIRECTION('',(0.,-1.,0.));
#802=DIRECTION('',(0.,0.,-1.));
#803=DIRECTION('',(-3.22739251344522E-16,-1.,0.));
#804=DIRECTION('',(1.,-3.22739251344522E-16,0.));
#805=DIRECTION('',(0.,1.,0.));
#806=DIRECTION('',(0.,0.,1.));
#807=DIRECTION('',(3.22739251344522E-16,1.,0.));
#808=DIRECTION('',(-1.,3.22739251344522E-16,0.));
#809=DIRECTION('',(0.,1.,0.));
#810=DIRECTION('',(0.,0.,1.));
#811=DIRECTION('',(0.,0.,1.));
#812=DIRECTION('',(1.,0.,0.));
#813=DIRECTION('',(-1.,0.,0.));
#814=DIRECTION('',(0.,1.,0.));
#815=DIRECTION('',(-1.,0.,0.));
#816=DIRECTION('',(0.,1.,0.));
#817=DIRECTION('',(0.,1.,0.));
#818=DIRECTION('',(0.,0.,1.));
#819=DIRECTION('',(-1.22464679914735E-16,1.,0.));
#820=DIRECTION('',(-1.,-1.22464679914735E-16,0.));
#821=DIRECTION('',(0.,1.,0.));
#822=DIRECTION('',(-1.22464679914735E-16,1.,0.));
#823=DIRECTION('',(-1.,-1.22464679914735E-16,0.));
#824=DIRECTION('',(-1.,0.,0.));
#825=DIRECTION('',(0.,0.,1.));
#826=DIRECTION('',(0.,0.,1.));
#827=DIRECTION('',(0.,1.,0.));
#828=DIRECTION('',(0.,0.,1.));
#829=DIRECTION('',(0.,1.,0.));
#830=DIRECTION('',(0.,0.,1.));
#831=DIRECTION('',(0.,-1.,0.));
#832=DIRECTION('',(0.,0.,-1.));
#833=DIRECTION('',(0.,1.,0.));
#834=DIRECTION('',(0.,-1.,0.));
#835=DIRECTION('',(0.,0.,-1.));
#836=DIRECTION('',(0.,0.,-1.));
#837=DIRECTION('',(-1.,0.,0.));
#838=DIRECTION('',(1.,0.,0.));
#839=DIRECTION('',(0.,1.,0.));
#840=DIRECTION('',(1.,0.,0.));
#841=DIRECTION('',(0.,1.,0.));
#842=DIRECTION('',(0.,0.,1.));
#843=DIRECTION('',(0.,-1.,0.));
#844=DIRECTION('',(0.,0.,-1.));
#845=DIRECTION('',(0.,1.,0.));
#846=DIRECTION('',(0.,-1.,0.));
#847=DIRECTION('',(0.,0.,-1.));
#848=DIRECTION('',(1.,0.,0.));
#849=DIRECTION('',(0.,0.,-1.));
#850=DIRECTION('',(0.,0.,-1.));
#851=DIRECTION('',(0.,1.,0.));
#852=DIRECTION('',(0.,0.,-1.));
#853=DIRECTION('',(0.,1.,0.));
#854=DIRECTION('',(0.,0.,1.));
#855=DIRECTION('',(0.,1.,1.22464679914735E-16));
#856=DIRECTION('',(0.,-1.22464679914735E-16,1.));
#857=DIRECTION('',(0.,1.,1.22464679914735E-16));
#858=DIRECTION('',(0.,-1.22464679914735E-16,1.));
#859=DIRECTION('',(0.,-1.,0.));
#860=DIRECTION('',(-1.,0.,0.));
#861=DIRECTION('',(0.,-1.,0.));
#862=DIRECTION('',(0.,0.,-1.));
#863=DIRECTION('',(0.,0.,-1.));
#864=DIRECTION('',(1.,0.,0.));
#865=DIRECTION('',(0.,0.,-1.));
#866=DIRECTION('',(1.,0.,0.));
#867=DIRECTION('',(-1.,0.,0.));
#868=DIRECTION('',(0.,0.,1.));
#869=DIRECTION('',(0.,-6.12323399573677E-17,1.));
#870=DIRECTION('',(0.,-1.,-6.12323399573677E-17));
#871=DIRECTION('',(-1.,0.,0.));
#872=DIRECTION('',(0.,0.,1.));
#873=DIRECTION('',(0.,0.,-1.));
#874=DIRECTION('',(-1.,0.,0.));
#875=DIRECTION('',(0.,-6.12323399573677E-17,1.));
#876=DIRECTION('',(0.,-1.,-6.12323399573677E-17));
#877=DIRECTION('',(-1.,0.,0.));
#878=DIRECTION('',(0.,0.,1.));
#879=DIRECTION('',(1.,0.,0.));
#880=DIRECTION('',(0.,0.,-1.));
#881=DIRECTION('',(1.,0.,0.));
#882=DIRECTION('',(0.,0.,-1.));
#883=DIRECTION('',(1.,-6.12323399573677E-17,0.));
#884=DIRECTION('',(6.12323399573677E-17,1.,0.));
#885=DIRECTION('',(0.,0.,1.));
#886=DIRECTION('',(1.,0.,0.));
#887=DIRECTION('',(0.,0.,1.));
#888=DIRECTION('',(1.,0.,0.));
#889=DIRECTION('',(0.,0.,1.));
#890=DIRECTION('',(1.,0.,0.));
#891=DIRECTION('',(0.,0.,1.));
#892=DIRECTION('',(1.,0.,0.));
#893=DIRECTION('',(0.,0.,-1.));
#894=DIRECTION('',(-1.,0.,0.));
#895=DIRECTION('',(-1.,-6.12323399573677E-17,0.));
#896=DIRECTION('',(6.12323399573677E-17,-1.,0.));
#897=DIRECTION('',(-1.,0.,0.));
#898=DIRECTION('',(0.,0.,1.));
#899=CARTESIAN_POINT('',(0.,0.,0.));
#900=CARTESIAN_POINT('',(17.,0.,10.));
#901=CARTESIAN_POINT('',(17.,10.5,10.));
#902=CARTESIAN_POINT('',(17.,10.5,3.));
#903=CARTESIAN_POINT('',(17.,10.5,7.));
#904=CARTESIAN_POINT('',(17.,0.,7.));
#905=CARTESIAN_POINT('',(17.,-18.5,7.));
#906=CARTESIAN_POINT('',(17.,-18.5,10.));
#907=CARTESIAN_POINT('',(17.,-18.5,3.));
#908=CARTESIAN_POINT('',(17.,21.5,3.));
#909=CARTESIAN_POINT('',(-17.,3.46944695195361E-15,10.));
#910=CARTESIAN_POINT('',(-17.,21.5,7.));
#911=CARTESIAN_POINT('',(-17.,-18.5,7.));
#912=CARTESIAN_POINT('',(-17.,10.5,7.));
#913=CARTESIAN_POINT('',(-17.,10.5,10.));
#914=CARTESIAN_POINT('',(-17.,10.5,3.));
#915=CARTESIAN_POINT('',(-17.,3.46944695195361E-15,3.));
#916=CARTESIAN_POINT('',(-17.,-18.5,3.));
#917=CARTESIAN_POINT('',(-17.,-18.5,10.));
#918=CARTESIAN_POINT('',(-1.04083408558608E-14,-21.5,10.));
#919=CARTESIAN_POINT('',(-14.,-21.5,0.));
#920=CARTESIAN_POINT('',(-14.,-21.5,7.));
#921=CARTESIAN_POINT('',(-14.,-21.5,3.));
#922=CARTESIAN_POINT('',(17.,-21.5,3.));
#923=CARTESIAN_POINT('',(14.,-21.5,3.));
#924=CARTESIAN_POINT('',(14.,-21.5,10.));
#925=CARTESIAN_POINT('',(14.,-21.5,7.));
#926=CARTESIAN_POINT('',(-1.04083408558608E-14,-21.5,7.));
#927=CARTESIAN_POINT('',(-3.46944695195361E-15,0.,10.));
#928=CARTESIAN_POINT('',(-17.,10.5,10.));
#929=CARTESIAN_POINT('',(14.,10.5,10.));
#930=CARTESIAN_POINT('',(-14.,10.5,10.));
#931=CARTESIAN_POINT('',(-14.,-21.5,10.));
#932=CARTESIAN_POINT('',(-14.,-18.5,10.));
#933=CARTESIAN_POINT('',(-3.46944695195361E-15,-18.5,10.));
#934=CARTESIAN_POINT('',(14.,-18.5,10.));
#935=CARTESIAN_POINT('',(14.,-4.51834951882331E-15,10.));
#936=CARTESIAN_POINT('',(-3.46944695195361E-15,0.,0.));
#937=CARTESIAN_POINT('',(-14.,4.51834951882331E-15,0.));
#938=CARTESIAN_POINT('',(-14.,-18.5,0.));
#939=CARTESIAN_POINT('',(-14.,10.5,0.));
#940=CARTESIAN_POINT('',(-3.46944695195361E-15,10.5,0.));
#941=CARTESIAN_POINT('',(14.,10.5,0.));
#942=CARTESIAN_POINT('',(14.,-21.5,0.));
#943=CARTESIAN_POINT('',(14.,-18.5,0.));
#944=CARTESIAN_POINT('',(-17.,-18.5,0.));
#945=CARTESIAN_POINT('',(-14.,-18.5,10.));
#946=CARTESIAN_POINT('',(-14.,-18.5,7.));
#947=CARTESIAN_POINT('',(-14.,-18.5,3.));
#948=CARTESIAN_POINT('',(-14.,-18.5,7.));
#949=CARTESIAN_POINT('',(-14.,-18.5,7.));
#950=CARTESIAN_POINT('',(-14.,-18.5,7.));
#951=CARTESIAN_POINT('',(-14.,-18.5,3.));
#952=CARTESIAN_POINT('',(-14.,-18.5,3.));
#953=CARTESIAN_POINT('',(-14.,-18.5,3.));
#954=CARTESIAN_POINT('',(-1.04083408558608E-14,-18.5,7.));
#955=CARTESIAN_POINT('',(14.,-18.5,7.));
#956=CARTESIAN_POINT('',(-14.,4.51834951882331E-15,7.));
#957=CARTESIAN_POINT('',(-14.,10.5,7.));
#958=CARTESIAN_POINT('',(-14.,2.50122919792004E-15,3.));
#959=CARTESIAN_POINT('',(-14.,10.5,3.));
#960=CARTESIAN_POINT('',(-3.46944695195361E-15,-18.5,3.));
#961=CARTESIAN_POINT('',(14.,-18.5,3.));
#962=CARTESIAN_POINT('',(14.,-18.5,10.));
#963=CARTESIAN_POINT('',(14.,-18.5,7.));
#964=CARTESIAN_POINT('',(14.,-18.5,3.));
#965=CARTESIAN_POINT('',(14.,-18.5,7.));
#966=CARTESIAN_POINT('',(14.,-18.5,7.));
#967=CARTESIAN_POINT('',(14.,-18.5,3.));
#968=CARTESIAN_POINT('',(14.,-18.5,3.));
#969=CARTESIAN_POINT('',(14.,9.68217754033567E-16,7.));
#970=CARTESIAN_POINT('',(14.,10.5,7.));
#971=CARTESIAN_POINT('',(14.,-4.51834951882331E-15,3.));
#972=CARTESIAN_POINT('',(14.,10.5,3.));
#973=CARTESIAN_POINT('',(3.46944695195361E-15,10.5,-0.05));
#974=CARTESIAN_POINT('',(3.46944695195361E-15,18.5,-0.05));
#975=CARTESIAN_POINT('',(-14.,18.5,-0.05));
#976=CARTESIAN_POINT('',(14.,18.5,-0.05));
#977=CARTESIAN_POINT('',(14.,10.5,-0.05));
#978=CARTESIAN_POINT('',(14.,10.5,-0.05));
#979=CARTESIAN_POINT('',(3.46944695195361E-15,10.5,-0.05));
#980=CARTESIAN_POINT('',(-14.,10.5,-0.05));
#981=CARTESIAN_POINT('',(-14.,10.5,-0.05));
#982=CARTESIAN_POINT('',(14.,10.5,3.));
#983=CARTESIAN_POINT('',(14.,18.5,3.));
#984=CARTESIAN_POINT('',(17.05,18.5,3.));
#985=CARTESIAN_POINT('',(17.05,10.5,3.));
#986=CARTESIAN_POINT('',(17.05,10.5,3.));
#987=CARTESIAN_POINT('',(14.,10.5,3.));
#988=CARTESIAN_POINT('',(17.05,10.5,10.));
#989=CARTESIAN_POINT('',(17.05,18.5,10.));
#990=CARTESIAN_POINT('',(17.05,18.5,7.));
#991=CARTESIAN_POINT('',(17.05,10.5,7.));
#992=CARTESIAN_POINT('',(17.05,10.5,7.));
#993=CARTESIAN_POINT('',(17.05,10.5,10.));
#994=CARTESIAN_POINT('',(14.,10.5,7.));
#995=CARTESIAN_POINT('',(14.,18.5,7.));
#996=CARTESIAN_POINT('',(14.,18.5,10.05));
#997=CARTESIAN_POINT('',(14.,10.5,10.05));
#998=CARTESIAN_POINT('',(14.,10.5,10.05));
#999=CARTESIAN_POINT('',(14.,10.5,7.));
#1000=CARTESIAN_POINT('',(-3.46944695195361E-15,10.5,10.05));
#1001=CARTESIAN_POINT('',(-3.46944695195361E-15,18.5,10.05));
#1002=CARTESIAN_POINT('',(-14.,18.5,10.05));
#1003=CARTESIAN_POINT('',(-14.,10.5,10.05));
#1004=CARTESIAN_POINT('',(-14.,10.5,10.05));
#1005=CARTESIAN_POINT('',(-3.46944695195361E-15,10.5,10.05));
#1006=CARTESIAN_POINT('',(-14.,10.5,7.));
#1007=CARTESIAN_POINT('',(-14.,18.5,7.));
#1008=CARTESIAN_POINT('',(-17.05,18.5,7.));
#1009=CARTESIAN_POINT('',(-17.05,10.5,7.));
#1010=CARTESIAN_POINT('',(-17.05,10.5,7.));
#1011=CARTESIAN_POINT('',(-14.,10.5,7.));
#1012=CARTESIAN_POINT('',(-17.05,10.5,10.));
#1013=CARTESIAN_POINT('',(-17.05,18.5,10.));
#1014=CARTESIAN_POINT('',(-17.05,18.5,3.));
#1015=CARTESIAN_POINT('',(-17.05,10.5,3.));
#1016=CARTESIAN_POINT('',(-17.05,10.5,3.));
#1017=CARTESIAN_POINT('',(-17.05,10.5,10.));
#1018=CARTESIAN_POINT('',(-14.,10.5,3.));
#1019=CARTESIAN_POINT('',(-14.,18.5,3.));
#1020=CARTESIAN_POINT('',(-14.,10.5,3.));
#1021=CARTESIAN_POINT('',(3.46944695195361E-15,10.5,0.));
#1022=CARTESIAN_POINT('',(3.46944695195361E-15,21.55,10.));
#1023=CARTESIAN_POINT('',(14.,21.55,10.));
#1024=CARTESIAN_POINT('',(14.,21.55,7.));
#1025=CARTESIAN_POINT('',(14.,21.55,3.));
#1026=CARTESIAN_POINT('',(3.46944695195361E-15,21.55,3.));
#1027=CARTESIAN_POINT('',(-14.,21.55,3.));
#1028=CARTESIAN_POINT('',(-14.,21.55,10.));
#1029=CARTESIAN_POINT('',(-14.,21.55,7.));
#1030=CARTESIAN_POINT('',(3.46944695195361E-15,21.55,7.));
#1031=CARTESIAN_POINT('',(-14.,18.5,3.));
#1032=CARTESIAN_POINT('',(-14.,18.5,3.));
#1033=CARTESIAN_POINT('',(-14.,18.5,3.));
#1034=CARTESIAN_POINT('',(-14.,18.5,10.));
#1035=CARTESIAN_POINT('',(-14.,18.5,7.));
#1036=CARTESIAN_POINT('',(-14.,18.5,7.));
#1037=CARTESIAN_POINT('',(-14.,18.5,7.));
#1038=CARTESIAN_POINT('',(-3.46944695195361E-15,18.5,7.));
#1039=CARTESIAN_POINT('',(14.,18.5,7.));
#1040=CARTESIAN_POINT('',(14.,18.5,7.));
#1041=CARTESIAN_POINT('',(14.,18.5,7.));
#1042=CARTESIAN_POINT('',(14.,18.5,10.));
#1043=CARTESIAN_POINT('',(14.,18.5,3.));
#1044=CARTESIAN_POINT('',(14.,18.5,3.));
#1045=CARTESIAN_POINT('',(14.,18.5,3.));
#1046=CARTESIAN_POINT('',(3.46944695195361E-15,18.5,3.));
#1047=MECHANICAL_DESIGN_GEOMETRIC_PRESENTATION_REPRESENTATION('',(#540,
#12,#13,#14,#15,#16,#17,#18,#19,#20,#21,#22,#23,#24,#25,#26,#27,#28),#1048);
#1048=(
GEOMETRIC_REPRESENTATION_CONTEXT(3)
GLOBAL_UNCERTAINTY_ASSIGNED_CONTEXT((#1049))
GLOBAL_UNIT_ASSIGNED_CONTEXT((#1052,#1051,#1050))
REPRESENTATION_CONTEXT('Part 1','TOP_LEVEL_ASSEMBLY_PART')
);
#1049=UNCERTAINTY_MEASURE_WITH_UNIT(LENGTH_MEASURE(1.E-5),#1052,
'DISTANCE_ACCURACY_VALUE','Maximum Tolerance applied to model');
#1050=(
NAMED_UNIT(*)
SI_UNIT($,.STERADIAN.)
SOLID_ANGLE_UNIT()
);
#1051=(
NAMED_UNIT(*)
PLANE_ANGLE_UNIT()
SI_UNIT($,.RADIAN.)
);
#1052=(
LENGTH_UNIT()
NAMED_UNIT(*)
SI_UNIT(.MILLI.,.METRE.)
);
#1053=PRODUCT_DEFINITION_SHAPE('','',#1054);
#1054=PRODUCT_DEFINITION('','',#1056,#1055);
#1055=PRODUCT_DEFINITION_CONTEXT('',#1062,'design');
#1056=PRODUCT_DEFINITION_FORMATION_WITH_SPECIFIED_SOURCE('','',#1058,
 .NOT_KNOWN.);
#1057=PRODUCT_RELATED_PRODUCT_CATEGORY('','',(#1058));
#1058=PRODUCT('Part 1','Part 1','Part 1',(#1060));
#1059=PRODUCT_CATEGORY('','');
#1060=PRODUCT_CONTEXT('',#1062,'mechanical');
#1061=APPLICATION_PROTOCOL_DEFINITION('international standard',
'ap242_managed_model_based_3d_engineering',2020,#1062);
#1062=APPLICATION_CONTEXT('managed model based 3d engineering');
ENDSEC;
END-ISO-10303-21;
